<?xml version="1.0" standalone="no"?>
<!DOCTYPE svg PUBLIC "-//W3C//DTD SVG 20010904//EN"
 "http://www.w3.org/TR/2001/REC-SVG-20010904/DTD/svg10.dtd">
<svg version="1.0" xmlns="http://www.w3.org/2000/svg"
 width="799.000000pt" height="799.000000pt" viewBox="0 0 799.000000 799.000000"
 preserveAspectRatio="xMidYMid meet">
<metadata>
Created by potrace 1.14, written by Peter Selinger 2001-2017
</metadata>
<g transform="translate(0.000000,799.000000) scale(0.100000,-0.100000)"
fill="#000000" stroke="none">
<path d="M6501 7954 c19 -23 18 -73 -1 -66 -13 5 -13 4 0 -13 8 -10 10 -16 3
-12 -7 5 -21 -1 -33 -13 -20 -20 -46 -28 -35 -11 3 5 1 13 -5 16 -6 4 -9 1 -8
-7 2 -7 -7 -14 -19 -16 -13 -2 -23 -8 -23 -14 0 -6 11 -8 25 -6 13 3 22 1 19
-4 -3 -5 -21 -7 -39 -5 -25 3 -32 1 -31 -11 0 -8 -14 -21 -33 -29 -31 -13 -33
-13 -22 0 10 13 9 15 -8 10 -12 -3 -19 -8 -17 -12 3 -4 0 -13 -5 -21 -8 -12
-9 -11 -7 5 2 14 -2 19 -14 17 -21 -3 -24 13 -5 22 6 3 3 5 -7 3 -12 -1 -20
-11 -21 -25 -1 -13 -19 -40 -40 -60 -31 -31 -35 -33 -20 -9 16 25 16 29 2 51
-14 21 -15 26 -1 37 8 6 17 9 21 5 3 -3 17 1 30 9 14 10 33 13 50 9 22 -4 25
-3 13 5 -8 6 -25 11 -37 11 -24 0 -31 14 -13 25 6 3 10 2 10 -3 0 -13 53 -22
65 -11 9 9 5 10 -27 13 -19 1 -38 22 -38 41 0 14 -2 14 -14 3 -7 -8 -16 -24
-20 -36 -4 -12 -18 -30 -32 -41 -13 -10 -24 -22 -24 -26 0 -4 -9 -14 -21 -23
-13 -11 -18 -23 -14 -35 8 -18 25 -24 25 -7 0 6 8 10 17 10 14 0 12 -4 -7 -17
-30 -20 -60 -53 -60 -65 0 -4 -8 -8 -17 -8 -27 -1 -51 -23 -60 -57 -8 -31 -83
-118 -119 -139 -11 -6 -19 -23 -20 -38 -1 -14 -5 -30 -9 -34 -5 -4 -5 2 -1 12
5 16 4 17 -9 6 -8 -7 -12 -16 -10 -21 3 -4 -4 -13 -15 -19 -14 -8 -19 -17 -15
-28 3 -9 3 -13 -1 -9 -12 12 -54 -35 -54 -60 0 -13 -5 -23 -10 -23 -13 0 -29
-13 -81 -64 -30 -30 -39 -46 -39 -73 0 -24 -8 -43 -27 -62 -41 -41 -87 -136
-79 -165 4 -15 0 -28 -9 -36 -8 -7 -15 -19 -15 -26 0 -8 -11 -16 -25 -20 -14
-3 -22 -10 -19 -16 3 -5 -3 -12 -15 -15 -12 -3 -21 -11 -21 -18 0 -7 -6 -15
-14 -18 -8 -3 -20 -16 -26 -28 -10 -17 -9 -20 2 -13 11 6 11 5 0 -8 -10 -13
-10 -17 0 -21 9 -4 9 -6 1 -6 -7 -1 -15 -17 -19 -36 -3 -19 -11 -35 -16 -35
-14 0 -71 -68 -74 -86 -1 -9 -14 -27 -28 -41 -14 -14 -26 -34 -26 -44 0 -10
-7 -22 -16 -27 -9 -5 -15 -13 -15 -18 1 -5 -4 -9 -10 -9 -6 0 -28 29 -48 65
-21 36 -54 83 -74 105 -20 22 -37 47 -37 55 0 15 -37 65 -87 117 -13 13 -23
27 -23 32 0 8 -76 112 -88 120 -5 4 -12 13 -16 21 -17 36 -33 59 -64 89 -17
18 -32 40 -32 50 0 10 -9 26 -20 36 -11 10 -20 23 -20 30 0 7 -13 31 -30 53
-16 23 -30 46 -30 51 0 5 -11 19 -25 32 -13 13 -25 29 -25 35 0 6 -7 17 -15
24 -8 7 -15 22 -15 33 0 11 -3 18 -6 14 -4 -3 -22 16 -40 43 -24 35 -34 61
-34 88 0 46 -6 55 -30 42 -14 -7 -27 0 -64 34 -25 24 -46 49 -46 55 0 6 -4 11
-9 11 -5 0 -7 8 -4 19 3 12 -3 24 -18 35 -13 9 -19 16 -14 17 6 0 0 4 -12 9
-13 6 -23 18 -23 30 0 11 -7 20 -15 20 -9 0 -20 11 -25 24 -5 13 -14 27 -20
31 -5 3 -8 10 -5 15 3 5 2 17 -3 27 -6 10 -14 32 -19 48 -6 22 -15 30 -31 29
-17 0 -20 4 -16 21 3 13 -1 29 -11 39 -21 20 -36 21 -29 1 4 -8 12 -15 20 -15
8 0 14 -7 14 -15 0 -18 -36 -20 -43 -2 -3 7 -6 5 -6 -5 -1 -10 6 -18 14 -18 8
0 15 -4 15 -10 0 -5 -19 -2 -42 6 -25 8 -55 12 -75 8 -28 -5 -38 -2 -60 22
-15 16 -26 30 -25 32 1 1 -1 2 -5 3 -15 1 -14 -21 1 -27 22 -8 20 -21 -4 -29
-20 -6 -19 -25 1 -25 6 0 8 4 5 9 -3 5 3 11 14 14 33 9 23 -8 -20 -32 -22 -12
-40 -27 -40 -34 0 -27 -21 13 -22 42 -1 22 -4 28 -10 19 -6 -10 -9 -8 -14 9
-7 24 -30 33 -91 33 -34 0 -43 -4 -43 -17 0 -14 2 -15 9 -5 6 10 10 8 14 -8 3
-12 3 -20 0 -17 -3 3 -11 0 -18 -6 -11 -10 -11 -16 0 -34 12 -18 12 -23 0 -33
-9 -7 -22 -9 -32 -5 -34 15 -49 12 -51 -9 -1 -13 2 -16 6 -9 9 14 79 0 97 -19
7 -8 5 -9 -7 -5 -10 4 -18 2 -18 -3 0 -5 -7 -6 -17 -3 -18 7 -13 -7 15 -40 28
-31 3 -30 -27 2 -31 33 -57 42 -47 15 3 -8 2 -12 -4 -9 -21 13 -9 -25 12 -39
12 -9 17 -16 10 -16 -6 0 -12 -7 -12 -15 0 -8 7 -15 15 -15 21 0 30 -27 15
-45 -9 -10 -9 -15 -1 -15 6 0 11 -7 11 -16 0 -8 14 -30 32 -47 17 -18 33 -43
34 -57 2 -13 7 -26 13 -28 5 -2 7 -10 4 -18 -3 -8 -1 -14 4 -14 12 0 11 -43
-1 -52 -8 -5 -7 -8 1 -8 6 0 15 5 18 10 3 6 11 10 18 10 8 0 8 -3 -1 -12 -13
-13 1 -38 22 -38 6 0 4 5 -4 11 -13 9 -13 10 0 6 8 -2 14 -11 12 -20 -1 -8 3
-19 9 -23 8 -5 10 -3 4 7 -5 10 -5 11 3 4 16 -15 26 -65 13 -65 -6 0 -11 9
-11 19 0 15 -5 18 -22 14 -19 -4 -20 -3 -8 6 13 9 13 11 -2 11 -21 0 -24 -18
-4 -26 8 -3 17 -15 20 -27 3 -12 8 -18 11 -15 4 3 21 -8 39 -25 19 -18 44 -41
57 -53 13 -11 31 -29 39 -40 8 -11 27 -34 43 -52 15 -19 24 -39 21 -44 -4 -7
-2 -8 4 -4 7 4 12 1 12 -7 0 -8 11 -25 25 -38 13 -13 25 -29 25 -35 0 -6 18
-30 39 -53 22 -23 52 -61 68 -84 15 -23 31 -43 36 -45 4 -2 7 -10 7 -17 0 -7
25 -38 55 -69 30 -30 55 -61 55 -68 0 -7 20 -35 45 -63 25 -27 48 -57 51 -67
3 -10 12 -18 20 -18 8 0 14 -5 14 -11 0 -5 29 -48 65 -94 36 -47 65 -89 65
-95 0 -5 7 -10 15 -10 8 0 22 -15 31 -32 9 -18 28 -45 41 -60 25 -26 42 -52
62 -93 5 -11 30 -42 55 -70 25 -27 46 -55 46 -63 0 -7 11 -28 25 -46 14 -18
25 -39 25 -47 0 -10 -2 -11 -8 -2 -5 9 -11 9 -23 0 -18 -14 -32 -47 -20 -47 5
0 4 -14 -2 -30 -7 -18 -17 -28 -24 -26 -7 3 -13 1 -13 -4 0 -6 -6 -10 -14 -10
-16 0 -29 -27 -21 -41 4 -5 -1 -6 -10 -3 -9 4 -15 3 -13 -2 3 -12 -25 -74 -34
-74 -13 0 -9 28 5 37 6 4 12 20 13 35 0 21 -3 25 -15 18 -30 -16 -60 -58 -65
-93 -9 -57 -16 -68 -36 -57 -13 7 -20 6 -24 -5 -3 -8 0 -15 6 -15 7 0 5 -5 -4
-12 -9 -7 -19 -30 -22 -50 -4 -21 -11 -38 -15 -38 -5 0 -12 -15 -15 -32 -7
-35 -40 -66 -84 -77 -18 -5 -28 -15 -30 -30 -4 -23 -66 -91 -83 -91 -5 0 -9
-12 -8 -27 0 -27 1 -27 9 -5 5 12 11 22 13 22 7 0 0 -47 -11 -73 -7 -16 -12
-39 -12 -51 0 -13 -9 -31 -20 -41 -11 -10 -20 -13 -20 -7 0 18 -15 14 -42 -11
-14 -13 -40 -30 -59 -37 -19 -8 -40 -20 -47 -27 -7 -7 -28 -15 -47 -19 -34 -6
-44 -17 -26 -28 5 -3 7 -15 4 -26 -3 -11 2 -31 11 -45 9 -13 16 -31 16 -40 0
-8 5 -15 10 -15 6 0 10 -5 10 -11 0 -14 -25 -39 -39 -39 -6 0 -11 -5 -11 -11
0 -6 -9 -22 -20 -36 -22 -28 -26 -24 -9 9 8 15 8 19 0 14 -16 -11 -42 -76 -34
-89 3 -5 1 -7 -5 -3 -6 3 -17 -1 -25 -9 -33 -32 -33 -13 -1 22 21 22 34 47 34
62 l-1 26 -22 -30 c-12 -16 -35 -42 -51 -57 -16 -16 -26 -28 -22 -28 4 0 2 -9
-4 -19 -6 -13 -7 -20 0 -23 6 -2 -3 -18 -20 -36 -17 -19 -27 -38 -24 -44 4 -6
3 -8 -3 -5 -10 6 -45 -28 -37 -36 3 -2 -26 -35 -63 -73 -37 -38 -68 -74 -68
-79 0 -6 -11 -21 -23 -33 -13 -13 -21 -30 -18 -38 3 -9 2 -12 -5 -9 -6 4 -13
-2 -16 -14 -3 -13 -13 -21 -28 -21 -16 0 -29 -14 -50 -55 -16 -30 -33 -55 -37
-55 -4 0 -8 -9 -8 -20 0 -12 -13 -25 -35 -36 -33 -15 -48 -48 -26 -56 5 -1 2
-10 -7 -18 -14 -13 -15 -12 -9 3 9 24 -6 21 -21 -4 -8 -12 -9 -18 -3 -14 6 3
11 2 11 -3 0 -14 -25 -21 -52 -15 -36 8 -153 57 -156 66 -5 11 -78 47 -97 47
-8 0 -46 15 -83 34 -37 18 -97 44 -134 56 -38 13 -68 25 -68 29 0 3 -12 11
-27 17 -16 6 -57 23 -93 38 -36 14 -73 26 -82 26 -10 0 -50 16 -89 35 -40 19
-78 35 -85 35 -7 0 -19 6 -26 13 -7 8 -31 20 -53 27 -22 7 -80 32 -130 55 -49
23 -111 50 -138 59 -26 10 -47 22 -47 27 0 9 -99 59 -119 59 -6 0 -50 20 -96
45 l-86 45 -87 -45 c-48 -25 -92 -45 -98 -45 -14 0 -104 -49 -121 -66 -6 -6
-26 -17 -45 -24 -18 -7 -77 -34 -131 -59 l-97 -46 20 -35 c11 -19 29 -53 39
-75 10 -22 33 -56 51 -75 18 -19 43 -52 56 -72 13 -21 40 -52 59 -69 19 -18
35 -40 35 -51 0 -10 4 -18 9 -18 17 0 101 -91 101 -110 0 -23 49 -110 66 -117
7 -3 25 -29 39 -59 14 -30 29 -54 33 -54 4 0 18 -17 32 -37 14 -21 37 -49 51
-63 33 -33 149 -188 149 -200 0 -5 9 -11 19 -15 11 -3 23 -14 26 -24 3 -10 26
-40 50 -67 25 -27 45 -56 45 -65 0 -9 17 -32 38 -50 39 -35 42 -38 85 -120 15
-29 41 -68 58 -88 46 -55 49 -60 49 -67 0 -4 8 -17 19 -28 24 -27 82 -113 101
-150 8 -16 25 -35 38 -44 l22 -14 -22 -22 c-13 -12 -35 -37 -51 -56 -15 -19
-27 -29 -27 -23 0 7 7 18 15 27 8 8 11 17 6 20 -5 3 -16 -4 -24 -17 -8 -12
-38 -46 -66 -76 -29 -30 -50 -60 -47 -67 3 -8 0 -14 -6 -14 -6 0 -8 -3 -5 -7
4 -3 0 -17 -8 -30 -9 -13 -13 -29 -9 -35 4 -7 3 -8 -5 -4 -6 4 -14 0 -18 -11
-4 -10 -13 -24 -20 -31 -7 -7 -13 -22 -13 -33 0 -13 -7 -19 -21 -19 -13 0 -18
-4 -13 -12 4 -6 3 -8 -4 -5 -17 11 -40 -3 -46 -29 -4 -15 -11 -22 -18 -18 -6
4 -9 1 -6 -7 3 -8 -1 -27 -9 -43 -8 -15 -10 -25 -4 -22 18 11 13 1 -20 -40
-17 -21 -36 -39 -42 -39 -7 0 -33 -21 -60 -47 -26 -27 -50 -48 -55 -48 -4 0
-15 -17 -25 -38 -10 -20 -33 -54 -52 -75 -19 -21 -37 -48 -41 -60 -4 -12 -9
-24 -13 -27 -15 -12 -31 -52 -25 -62 4 -6 3 -8 -3 -5 -6 4 -15 -5 -21 -18 -7
-14 -16 -25 -21 -25 -5 0 -17 -25 -26 -55 -15 -53 -35 -74 -35 -37 0 11 -6 7
-19 -14 -11 -18 -24 -35 -30 -38 -6 -4 -11 -18 -11 -32 0 -13 -4 -24 -10 -24
-5 0 -10 -6 -10 -13 0 -21 -53 -97 -72 -103 -10 -3 -18 -10 -18 -16 0 -6 -22
-41 -50 -78 -27 -37 -50 -72 -50 -76 0 -5 -14 -22 -32 -37 -17 -16 -37 -39
-44 -52 -11 -21 -10 -23 4 -18 26 9 -29 -47 -55 -58 -13 -5 -33 -31 -48 -64
-15 -30 -31 -55 -37 -55 -20 0 -134 -124 -146 -159 -7 -19 -10 -36 -8 -39 8
-7 26 9 26 24 0 8 5 14 10 14 6 0 10 9 10 20 0 11 5 20 10 20 6 0 10 6 10 14
0 17 52 36 79 29 28 -7 27 -31 -1 -43 -13 -4 -39 -31 -58 -58 -19 -27 -49 -58
-66 -70 -26 -17 -31 -25 -26 -48 5 -25 6 -26 12 -9 4 11 3 23 -2 26 -6 4 -6 9
1 13 6 4 21 0 33 -8 12 -9 17 -16 10 -16 -6 0 -12 -9 -12 -19 0 -11 -4 -21 -9
-23 -5 -1 -12 -23 -16 -48 -4 -25 -4 -42 0 -38 10 9 35 -10 35 -26 0 -6 -4 -4
-10 4 -15 23 -17 9 -11 -62 4 -38 3 -68 -1 -68 -11 0 -10 -98 1 -105 6 -3 9 5
9 17 -1 13 -1 36 0 51 2 23 4 26 16 15 7 -7 11 -19 8 -26 -4 -11 2 -10 27 2
17 9 31 21 31 27 0 6 4 8 10 4 5 -3 7 -13 4 -23 -5 -13 -4 -14 4 -3 5 7 14 11
20 7 5 -3 15 1 22 9 7 8 20 15 29 15 10 0 26 7 37 15 10 8 24 14 29 14 6 0
-14 -15 -43 -33 -38 -25 -48 -35 -37 -40 9 -3 13 -2 10 4 -3 6 -1 10 4 10 6 0
11 -5 11 -10 0 -7 8 -6 23 2 12 7 24 13 27 13 3 1 19 7 35 15 17 7 46 20 65
28 19 8 48 28 65 43 16 16 36 29 43 29 6 0 12 6 12 13 0 8 11 24 26 38 18 17
23 19 18 6 -4 -12 -1 -17 10 -17 9 0 16 6 16 14 0 7 7 19 16 26 8 8 20 23 26
34 10 19 10 20 -5 7 -23 -18 -21 -2 3 29 11 14 20 31 20 38 0 21 20 13 20 -8
0 -11 5 -20 10 -20 23 0 7 -37 -26 -59 -39 -27 -80 -79 -70 -89 4 -3 11 0 16
8 8 12 10 11 10 -7 0 -17 11 -25 51 -38 28 -10 66 -19 85 -21 18 -1 43 -9 56
-17 14 -9 31 -12 42 -8 19 7 19 8 -2 13 -12 4 -22 11 -22 17 0 7 8 8 23 2 27
-10 47 -4 47 15 0 8 7 26 16 39 10 15 12 25 5 25 -6 0 -11 -7 -11 -15 0 -8 -7
-15 -16 -15 -11 0 -14 6 -9 23 6 18 5 20 -6 10 -15 -15 -49 -17 -49 -4 0 15
13 20 58 23 23 2 42 6 42 10 0 4 7 5 15 1 9 -3 15 -1 13 4 -2 6 18 32 44 58
27 26 48 53 48 60 0 7 11 16 25 19 14 4 25 13 25 21 0 9 11 20 25 27 13 6 22
14 20 18 -5 8 51 24 72 21 7 -1 13 3 13 9 0 5 -6 9 -12 8 -7 -2 -14 7 -16 20
-2 12 1 22 7 22 6 0 11 10 11 23 0 13 5 28 12 35 9 9 9 12 -4 12 -14 0 -14 5
1 48 18 54 71 119 82 101 4 -6 12 -8 18 -5 17 11 13 44 -7 55 -13 8 -6 9 27 4
32 -4 42 -3 37 5 -4 7 -2 12 3 12 6 0 11 5 11 11 0 5 -5 7 -10 4 -13 -8 -13 1
1 26 5 11 14 17 20 14 5 -4 9 0 9 7 0 9 2 10 8 2 5 -9 11 -8 20 2 11 12 10 14
-10 10 -25 -4 -55 19 -38 29 6 3 10 1 10 -4 0 -6 9 -3 20 6 14 13 17 20 8 30
-8 10 -7 12 4 8 8 -3 25 6 38 20 13 14 28 25 34 25 6 0 26 24 44 53 18 29 43
57 54 62 17 8 32 37 45 85 8 27 17 38 29 33 8 -3 14 0 14 6 0 6 3 10 8 10 23
-4 38 4 49 26 6 14 8 23 4 21 -4 -3 -12 -1 -19 3 -22 14 7 112 43 141 16 14
37 33 47 42 10 10 21 18 24 18 4 0 13 8 20 18 12 15 12 15 7 -5 -3 -13 -9 -23
-14 -23 -5 0 -9 -5 -9 -11 0 -6 -11 -20 -25 -31 -14 -11 -23 -23 -20 -28 3 -5
1 -11 -4 -15 -6 -3 -7 -13 -4 -21 5 -15 7 -15 15 -1 5 9 15 14 22 11 9 -4 16
5 21 25 4 17 17 39 31 50 13 10 24 24 24 31 0 6 6 21 12 33 7 12 13 29 14 37
1 8 2 23 3 33 0 10 6 15 11 12 6 -3 10 3 10 14 0 12 5 21 10 21 6 0 10 5 10
11 0 5 -5 7 -11 3 -7 -4 -3 8 7 25 10 18 27 37 37 42 10 6 15 14 12 20 -4 5
-2 9 3 9 5 0 28 -28 50 -63 23 -34 66 -89 96 -122 31 -33 65 -78 76 -100 11
-22 38 -59 60 -83 22 -24 40 -47 40 -51 0 -11 81 -114 97 -124 7 -4 13 -15 13
-23 0 -19 42 -84 55 -84 12 0 65 -78 65 -96 0 -7 3 -14 8 -16 4 -1 23 -23 42
-48 19 -25 40 -49 46 -55 6 -5 21 -26 34 -45 13 -19 30 -42 37 -50 8 -8 27
-34 43 -58 17 -23 37 -42 45 -42 8 0 15 -5 15 -10 0 -11 32 -60 62 -95 9 -11
30 -48 47 -82 17 -34 38 -69 47 -78 15 -14 15 -18 3 -26 -8 -5 -9 -9 -3 -9 6
0 18 -16 27 -35 9 -19 21 -35 27 -35 5 0 9 -3 8 -7 -3 -10 29 -70 40 -75 13
-5 52 -65 52 -80 0 -7 9 -19 21 -26 11 -7 27 -28 35 -47 8 -19 28 -44 44 -57
17 -12 30 -28 30 -35 0 -8 13 -14 30 -14 17 -1 36 -2 43 -3 6 -1 17 2 24 7 7
5 16 6 22 3 5 -4 17 1 25 10 12 11 16 12 16 2 0 -7 12 6 26 30 14 23 29 42 34
42 5 0 11 13 15 30 6 28 35 43 35 19 0 -20 73 -2 91 23 17 22 18 22 41 3 13
-11 17 -13 10 -5 -6 8 -11 34 -11 59 1 39 2 41 8 17 l6 -29 19 36 c11 20 24
34 28 31 4 -3 8 1 8 8 0 9 3 9 10 -2 8 -11 9 -8 4 11 -3 15 -1 30 5 33 17 11
13 40 -9 56 -14 10 -16 17 -9 26 6 7 16 12 22 10 7 -1 9 -1 5 1 -5 3 -3 13 3
24 5 11 7 25 3 31 -4 7 -3 8 4 4 7 -4 12 -3 12 3 0 5 -4 12 -10 16 -5 3 -7 12
-4 19 3 8 0 17 -5 21 -6 3 -9 10 -6 15 3 4 -2 7 -10 6 -21 -3 -31 -16 -13 -16
12 0 15 -6 10 -22 -4 -16 -7 -18 -10 -8 -3 8 -12 21 -19 29 -12 11 -12 15 -1
22 12 8 4 13 -15 10 -5 -1 -6 2 -3 7 3 5 -6 20 -19 32 -14 13 -25 29 -25 37 0
7 -7 13 -16 13 -9 0 -18 9 -21 20 -3 11 -10 20 -15 20 -6 0 -7 7 -4 16 5 12 2
15 -9 10 -9 -3 -14 -2 -11 2 6 10 -32 74 -50 85 -8 5 -12 12 -9 17 3 4 -2 10
-10 14 -8 3 -15 12 -15 21 0 8 -5 15 -10 15 -6 0 -14 8 -17 17 -4 9 -28 39
-55 67 -26 28 -48 56 -48 62 0 11 -79 94 -90 94 -3 0 -16 19 -28 43 -12 23
-35 56 -52 72 -16 16 -30 34 -30 41 0 7 -13 21 -29 30 -16 9 -43 40 -60 68
-17 29 -51 72 -76 97 -24 24 -45 48 -45 53 0 11 -70 98 -87 109 -7 4 -13 14
-13 22 0 8 -25 39 -55 68 -30 29 -55 57 -55 61 0 8 -56 76 -127 155 -23 25
-56 73 -73 107 -17 35 -47 74 -70 93 -22 18 -40 40 -40 49 0 10 -6 24 -12 31
-10 11 -10 14 0 18 6 3 12 17 12 32 0 15 6 36 14 46 8 11 12 24 10 30 -5 12
46 61 59 57 5 -1 6 2 2 8 -7 12 18 40 35 40 7 0 10 6 7 13 -3 8 10 38 29 68
18 30 34 60 34 67 0 7 11 17 25 22 14 5 25 16 25 25 0 8 5 15 11 15 5 0 8 4 4
9 -6 11 33 81 46 81 5 0 9 7 9 15 0 8 5 15 11 15 5 0 8 4 5 9 -3 4 3 16 14 26
11 10 20 23 20 30 0 7 14 22 30 35 17 13 30 29 30 37 0 8 5 11 11 7 6 -3 14
-2 18 4 4 7 22 3 51 -12 25 -13 69 -31 98 -40 28 -10 52 -21 52 -26 0 -5 17
-14 38 -21 20 -6 42 -15 47 -19 6 -5 45 -22 88 -39 95 -38 158 -70 172 -86 5
-7 26 -18 45 -24 19 -6 64 -29 100 -50 36 -21 81 -43 100 -50 19 -6 53 -27 75
-46 22 -19 56 -40 75 -46 19 -7 63 -29 98 -51 34 -21 80 -44 102 -50 22 -7 40
-16 40 -19 0 -4 24 -17 53 -29 28 -12 75 -33 102 -46 40 -19 56 -22 82 -15 36
11 166 81 171 93 2 4 10 8 17 8 13 0 156 67 265 124 42 22 45 26 43 61 -2 20
-16 62 -32 93 -16 32 -45 95 -64 141 -19 46 -42 92 -52 104 -10 11 -28 45 -42
76 -13 31 -33 72 -44 91 -10 19 -32 60 -47 90 -15 30 -30 57 -33 60 -8 7 -73
135 -107 210 -16 36 -38 74 -49 85 -10 11 -25 36 -33 55 -7 19 -21 46 -30 60
-19 27 -67 129 -96 200 -10 25 -21 47 -24 50 -13 12 -49 90 -65 140 -10 30
-30 80 -45 110 -31 62 -45 110 -32 110 23 0 128 -23 132 -29 3 -4 25 -13 50
-20 104 -29 249 -75 305 -96 33 -12 85 -28 115 -36 30 -7 58 -17 61 -21 3 -4
31 -13 63 -19 32 -6 95 -23 140 -39 44 -15 108 -35 141 -45 149 -42 200 -58
205 -66 5 -7 52 -24 206 -74 38 -12 46 -11 110 16 38 16 76 37 84 46 8 10 58
38 110 63 124 59 198 100 183 100 -7 0 -13 5 -13 10 0 12 -67 116 -92 144 -10
11 -18 24 -18 30 0 5 -9 19 -19 30 -18 20 -32 41 -76 116 -11 18 -32 46 -47
61 -16 16 -28 31 -28 35 0 3 -20 35 -45 71 -25 35 -45 69 -45 74 0 6 -18 28
-40 50 -22 22 -47 54 -56 71 -22 42 -86 128 -96 128 -4 0 -8 7 -8 15 0 15 -14
34 -77 104 -17 19 -34 45 -38 58 -3 13 -13 32 -23 42 -51 56 -66 73 -88 106
-13 20 -24 39 -24 43 0 4 -12 23 -28 42 -15 19 -34 47 -41 62 -8 15 -22 30
-33 34 -10 3 -18 10 -18 16 0 6 -11 26 -25 44 -14 18 -25 37 -25 43 0 6 -4 11
-8 11 -4 0 -23 25 -42 55 -19 30 -40 54 -46 55 -23 0 -22 39 2 67 14 15 27 38
30 50 3 11 14 23 24 26 10 3 35 40 60 91 23 47 48 86 55 86 12 0 21 19 31 62
5 24 112 179 144 208 15 14 30 32 34 40 13 29 31 56 74 108 23 30 42 58 42 62
0 5 12 21 28 37 50 53 79 92 96 127 9 19 29 44 44 55 15 10 34 32 42 48 8 15
34 54 57 85 24 31 43 60 43 65 0 5 10 15 21 23 18 13 47 50 84 109 6 9 18 26
27 40 10 13 15 27 12 32 -3 5 -2 8 3 7 18 -6 53 31 73 77 12 27 27 53 33 57 7
4 8 8 2 8 -5 0 -11 17 -11 38 -1 20 0 29 3 20 2 -10 9 -18 14 -18 6 0 7 5 4
10 -3 6 1 18 11 27 16 16 16 16 10 -5 -5 -13 -3 -22 3 -22 6 0 11 5 11 10 0
19 45 80 59 80 15 0 44 30 69 73 9 15 20 27 24 27 4 0 8 7 8 15 0 7 6 18 13
22 17 10 38 91 26 99 -14 8 -10 24 6 24 8 0 15 -4 15 -10 0 -20 15 -9 28 20
15 33 9 52 -13 44 -8 -4 -18 1 -21 10 -3 9 -10 16 -15 16 -6 0 -5 -9 1 -20 8
-15 6 -24 -10 -40 -11 -11 -20 -25 -20 -31 0 -13 -29 -38 -44 -39 -5 0 0 8 12
18 17 15 30 69 22 92 -1 3 -3 18 -5 35 -2 16 -11 35 -20 41 -8 6 -15 14 -15
18 0 14 -29 36 -47 36 -11 0 -29 -9 -41 -20 -18 -17 -22 -18 -22 -5 0 9 14 21
31 27 16 6 28 12 26 14 -2 3 -16 0 -30 -5 -20 -8 -28 -6 -43 10 -9 10 -24 19
-33 19 -13 0 -14 -2 -2 -9 12 -8 12 -11 0 -23 -32 -32 -56 -29 -50 6 1 5 -6 6
-16 4 -20 -5 -46 15 -35 27 4 4 3 5 -3 3 -5 -1 -36 23 -68 55 -31 31 -61 57
-66 57 -5 0 -14 6 -20 14 -6 8 -21 16 -32 19 -17 5 -18 3 -8 -9z m154 -151 c0
-20 -6 -29 -20 -31 l-20 -4 20 16 c18 14 18 15 3 16 -20 0 -24 26 -5 33 19 7
23 1 22 -30z m-464 -6 c-10 -9 -11 -8 -5 6 3 10 9 15 12 12 3 -3 0 -11 -7 -18z
m-2496 -7 c15 -16 15 -20 3 -20 -8 0 -23 9 -33 20 -15 16 -15 20 -3 20 8 0 23
-9 33 -20z m2999 -11 c-3 -5 -1 -9 3 -9 5 0 9 -12 10 -27 1 -16 -1 -21 -4 -13
-3 8 -12 27 -19 42 -13 24 -12 27 1 22 8 -3 12 -10 9 -15z m149 -6 c4 -3 2
-12 -4 -19 -6 -8 -9 -20 -6 -27 3 -7 -10 -23 -29 -35 -28 -18 -35 -20 -40 -8
-6 15 7 46 34 77 17 19 34 24 45 12z m72 -53 c3 -5 -1 -10 -9 -10 -9 0 -16 5
-16 10 0 6 4 10 9 10 6 0 13 -4 16 -10z m40 -10 c3 -5 1 -10 -4 -10 -6 0 -11
5 -11 10 0 6 2 10 4 10 3 0 8 -4 11 -10z m-304 -30 c-25 -21 -46 -27 -36 -9 6
9 41 27 55 28 3 0 -6 -9 -19 -19z m179 -20 c0 -5 -5 -10 -11 -10 -5 0 -7 5 -4
10 3 6 8 10 11 10 2 0 4 -4 4 -10z m95 0 c-3 -5 -14 -10 -23 -9 -14 0 -13 2 3
9 27 11 27 11 20 0z m-45 -10 c0 -5 -2 -10 -4 -10 -3 0 -8 5 -11 10 -3 6 -1
10 4 10 6 0 11 -4 11 -10z m100 -9 c0 -6 -5 -13 -12 -17 -7 -4 -8 -3 -4 4 5 8
2 10 -8 6 -9 -3 -13 -10 -11 -15 10 -14 -25 -69 -50 -81 -13 -6 -22 -15 -18
-21 3 -6 1 -7 -5 -3 -6 4 -9 14 -6 24 2 9 -5 -1 -16 -23 -11 -22 -18 -32 -16
-23 3 9 0 18 -5 20 -6 2 -4 17 5 38 8 19 16 28 16 20 0 -9 7 -3 16 13 8 15 21
27 29 27 9 0 23 9 32 20 18 20 53 28 53 11z m-3342 -76 c-3 -3 -9 2 -12 12 -6
14 -5 15 5 6 7 -7 10 -15 7 -18z m3182 -73 c0 -7 -4 -10 -10 -7 -5 3 -10 16
-10 28 0 18 2 19 10 7 5 -8 10 -21 10 -28z m86 -7 c-27 -20 2 -21 30 -1 12 9
26 11 33 6 10 -6 7 -10 -10 -16 -13 -4 -27 -7 -31 -6 -5 1 -8 -2 -8 -7 0 -14
-37 -20 -49 -8 -8 8 -3 16 17 29 32 21 45 23 18 3z m-1016 -55 c0 -5 -5 -10
-11 -10 -5 0 -7 5 -4 10 3 6 8 10 11 10 2 0 4 -4 4 -10z m967 -135 c-15 -16
-19 -13 -11 9 3 9 10 13 15 10 5 -3 3 -11 -4 -19z m-3056 -76 c-5 -13 -10 -19
-10 -12 -1 15 10 45 15 40 3 -2 0 -15 -5 -28z m1899 -33 c0 -3 -4 -8 -10 -11
-5 -3 -10 -1 -10 4 0 6 5 11 10 11 6 0 10 -2 10 -4z m80 -121 c0 -7 7 -18 15
-25 11 -9 12 -16 2 -31 -6 -10 -19 -18 -27 -16 -8 1 -14 -4 -12 -12 2 -9 -4
-12 -18 -8 -13 3 -20 0 -20 -9 0 -8 -7 -17 -15 -20 -8 -4 -12 -10 -9 -15 3 -5
1 -8 -4 -7 -5 2 -23 -14 -40 -34 -16 -21 -32 -35 -36 -31 -3 3 -6 2 -6 -4 0
-6 -7 -14 -15 -17 -14 -5 -14 -3 0 17 8 12 21 22 28 22 6 0 14 11 15 24 3 19
6 21 13 10 6 -10 9 -7 9 13 0 15 5 30 10 33 6 4 8 10 5 15 -3 4 2 11 11 14 8
3 12 11 9 16 -4 6 -1 9 6 8 6 -2 16 13 21 32 6 19 15 38 21 42 14 9 37 -1 37
-17z m-142 -40 c-6 -14 -13 -23 -15 -21 -5 5 15 46 22 46 3 0 -1 -11 -7 -25z
m37 -22 c-4 -10 -8 -25 -9 -33 -2 -8 -8 -15 -14 -14 -34 3 -39 5 -39 19 0 8 3
12 6 10 4 -2 18 5 31 16 31 23 34 23 25 2z m-184 -246 c-10 -9 -11 -8 -5 6 3
10 9 15 12 12 3 -3 0 -11 -7 -18z m-31 -51 c0 -2 -7 -9 -15 -16 -13 -11 -14
-10 -9 4 5 14 24 23 24 12z m60 -56 c0 -11 -7 -20 -15 -20 -18 0 -19 12 -3 28
16 16 18 15 18 -8z m-70 -94 c0 -2 -7 -6 -15 -10 -8 -3 -15 -1 -15 4 0 6 7 10
15 10 8 0 15 -2 15 -4z m-30 -29 c0 -2 -9 -14 -20 -27 -11 -12 -17 -27 -13
-33 3 -5 1 -7 -4 -4 -6 4 -13 -2 -16 -13 -3 -13 -13 -20 -29 -20 -20 1 -21 2
-5 11 9 5 17 16 17 24 0 18 41 65 58 65 6 0 12 -2 12 -3z m-98 -143 c-8 -15
-9 -15 -15 0 -4 10 -3 15 3 11 6 -3 10 2 11 12 0 10 3 13 5 6 3 -7 1 -20 -4
-29z m-22 -48 c0 -3 -4 -8 -10 -11 -5 -3 -10 -1 -10 4 0 6 5 11 10 11 6 0 10
-2 10 -4z m530 -490 c0 -2 -8 -10 -17 -17 -16 -13 -17 -12 -4 4 13 16 21 21
21 13z m-994 -58 c4 -7 3 -8 -4 -4 -7 4 -12 2 -12 -5 0 -7 -3 -10 -6 -6 -6 5
3 27 11 27 2 0 7 -5 11 -12z m-79 -130 c-3 -8 -6 -5 -6 6 -1 11 2 17 5 13 3
-3 4 -12 1 -19z m571 -505 c-29 -59 -46 -84 -60 -89 -10 -3 -18 -10 -18 -15 0
-25 70 30 83 65 7 19 9 18 32 -7 14 -14 25 -31 25 -37 0 -6 7 -13 15 -16 8 -4
15 -11 15 -16 0 -5 18 -31 41 -56 22 -26 47 -60 54 -77 7 -16 26 -44 41 -62
51 -55 74 -87 74 -101 0 -7 7 -24 16 -38 27 -41 9 -46 -99 -29 -54 9 -107 20
-120 24 -12 5 -43 15 -69 21 -27 7 -48 16 -48 20 0 4 -30 16 -67 25 -38 10
-98 27 -135 40 l-67 22 34 31 c19 16 35 37 35 46 0 13 37 42 50 39 3 -1 13 10
23 23 10 13 13 24 8 24 -13 0 21 60 34 60 13 0 80 71 88 93 4 9 9 17 12 17 4
0 5 -3 3 -7z m-1428 -633 c0 -5 -2 -10 -4 -10 -3 0 -8 5 -11 10 -3 6 -1 10 4
10 6 0 11 -4 11 -10z m-37 -66 c3 -4 -3 -25 -15 -48 -13 -24 -23 -35 -26 -27
-2 7 -1 16 4 20 5 3 14 16 21 28 10 17 10 23 0 26 -7 3 -8 6 -1 6 6 1 13 -2
17 -5z m-80 -119 c-3 -9 -8 -14 -10 -11 -3 3 -2 9 2 15 9 16 15 13 8 -4z m722
-406 c14 -36 36 -76 49 -90 26 -28 113 -205 152 -307 13 -36 30 -70 38 -76 8
-6 31 -54 51 -106 20 -52 46 -114 58 -137 12 -23 18 -45 15 -49 -4 -3 -26 5
-50 18 -24 14 -67 33 -95 42 -29 10 -53 21 -53 25 0 12 -98 52 -200 81 -54 16
-170 72 -170 82 0 10 -55 38 -76 38 -9 0 -36 12 -60 28 -35 22 -43 32 -39 52
2 14 4 33 4 43 1 10 9 17 20 17 20 0 37 39 18 41 -8 0 -8 2 1 6 6 2 12 11 12
20 0 23 39 73 58 73 13 0 13 -3 -4 -16 -18 -14 -18 -15 4 -4 12 6 22 18 22 27
0 28 38 98 70 128 16 16 30 35 30 42 0 7 5 13 10 13 6 0 10 7 10 15 0 8 17 31
38 53 43 45 45 44 87 -59z m-965 72 c-5 -11 -15 -23 -22 -27 -7 -5 -8 -2 -3 7
21 37 44 55 25 20z m-1229 -316 c41 -19 84 -35 96 -35 23 0 142 -53 152 -68 4
-4 40 -23 81 -41 41 -18 100 -46 130 -60 30 -15 81 -36 113 -45 31 -10 57 -22
57 -27 0 -5 15 -15 33 -23 17 -8 26 -15 19 -15 -7 -1 -11 -5 -7 -10 3 -5 -4
-12 -15 -16 -11 -3 -20 -13 -20 -22 0 -9 -5 -33 -12 -54 -8 -29 -17 -39 -32
-40 -18 -1 -18 -2 4 -9 l25 -8 -26 -1 c-28 -1 -69 -34 -69 -56 0 -7 -5 -15
-11 -17 -7 -2 -13 -17 -15 -32 -2 -16 -8 -34 -14 -40 -8 -8 -9 -6 -4 9 4 11
-5 5 -20 -14 -14 -19 -26 -30 -26 -24 0 13 -43 65 -82 102 -16 14 -28 30 -28
36 0 6 -22 32 -50 59 -27 27 -50 54 -50 60 0 6 -16 27 -35 45 -20 18 -45 51
-56 73 -11 21 -26 41 -34 44 -17 7 -76 87 -99 135 -9 19 -32 51 -51 71 -30 32
-44 58 -31 58 2 0 37 -16 77 -35z m477 -649 c-7 -8 -15 -12 -17 -11 -5 6 10
25 20 25 5 0 4 -6 -3 -14z m542 -534 c0 -4 -9 -15 -20 -25 -12 -10 -18 -23
-14 -30 4 -6 4 -9 -1 -5 -8 8 -34 -19 -35 -36 0 -5 16 7 35 27 20 21 40 37 45
37 10 0 -7 -57 -22 -77 -5 -7 -7 -21 -3 -32 3 -11 0 -23 -6 -27 -9 -5 -10 -2
-6 9 4 10 2 17 -4 17 -7 0 -5 10 5 25 18 27 20 35 8 35 -5 0 -14 -12 -21 -27
-12 -27 -13 -27 -27 -8 -18 25 -19 24 16 78 26 42 50 60 50 39z m-1012 -132
c-7 -10 -14 -17 -17 -15 -4 4 18 35 25 35 2 0 -1 -9 -8 -20z m1042 -4 c0 -2
-7 -7 -16 -10 -8 -3 -12 -2 -9 4 6 10 25 14 25 6z m-1076 -40 c-3 -8 -15 -17
-27 -20 -40 -11 -42 -6 -7 13 19 10 36 19 37 20 1 0 0 -5 -3 -13z m1065 11
c-2 -1 -13 -9 -24 -17 -19 -14 -19 -14 -6 3 7 9 18 17 24 17 6 0 8 -1 6 -3z
m-470 -451 c9 -11 7 -15 -9 -19 -11 -3 -24 -16 -29 -30 -10 -27 -31 -45 -31
-28 0 6 5 11 11 11 6 0 9 7 5 15 -3 8 5 24 17 36 12 12 16 18 8 14 -9 -5 -12
-4 -7 3 10 16 21 15 35 -2z m-86 -111 c-3 -9 -8 -14 -10 -11 -3 3 -2 9 2 15 9
16 15 13 8 -4z m38 -39 c-7 -8 -10 -20 -6 -25 3 -7 0 -8 -9 -5 -20 8 -20 10 2
32 20 22 31 20 13 -2z m-68 -48 c-13 -12 -26 -19 -29 -15 -4 4 1 14 12 22 29
22 41 18 17 -7z m55 -68 c-13 -20 -28 -27 -28 -12 0 10 22 32 32 32 5 0 3 -9
-4 -20z m-564 -584 c-6 -15 -24 -23 -24 -11 0 8 24 34 28 30 1 -1 0 -10 -4
-19z m-914 -173 c0 -2 -12 -8 -26 -13 -19 -7 -24 -15 -19 -29 6 -21 -7 -29
-42 -26 -13 1 -23 -1 -23 -4 -1 -3 -12 -19 -27 -36 l-26 -30 18 29 c17 28 17
29 -1 22 -13 -5 -11 1 9 19 15 14 25 30 23 34 -3 4 5 8 16 8 12 1 24 6 27 11
9 14 71 27 71 15z m-20 -27 c0 -3 -4 -8 -10 -11 -5 -3 -10 -1 -10 4 0 6 5 11
10 11 6 0 10 -2 10 -4z m-167 -160 c-20 -39 -35 -47 -30 -16 3 19 37 63 44 56
2 -2 -4 -20 -14 -40z m-63 -12 c0 -2 -9 -4 -21 -4 -11 0 -18 4 -14 10 5 8 35
3 35 -6z m3497 -10 c-3 -3 -12 -4 -19 -1 -8 3 -5 6 6 6 11 1 17 -2 13 -5z m28
-34 c3 -6 -1 -7 -9 -4 -18 7 -21 14 -7 14 6 0 13 -4 16 -10z m-3488 -42 c-3
-8 -6 -5 -6 6 -1 11 2 17 5 13 3 -3 4 -12 1 -19z m-27 -38 c0 -5 -6 -14 -12
-19 -7 -6 -30 -24 -50 -41 -24 -20 -39 -27 -43 -19 -4 6 -2 16 4 22 9 9 11 7
5 -8 -4 -13 4 -7 24 15 38 43 42 62 6 29 l-27 -24 18 28 c12 19 26 27 46 27
16 0 29 -4 29 -10z m-10 -69 c0 -5 -6 -11 -14 -14 -8 -3 -16 -16 -18 -29 -2
-13 -9 -22 -15 -21 -6 1 -9 -6 -6 -17 4 -16 2 -19 -11 -14 -23 9 -20 26 12 67
25 34 52 48 52 28z m370 -51 c0 -5 -4 -10 -10 -10 -5 0 -10 5 -10 10 0 6 5 10
10 10 6 0 10 -4 10 -10z m48 -22 c1 -34 -14 -62 -28 -53 -5 3 -11 -3 -15 -14
-3 -10 -14 -26 -25 -36 -18 -16 -20 -17 -20 -2 0 10 -2 17 -5 17 -8 0 -55 -51
-55 -60 0 -6 -4 -10 -10 -10 -16 0 -12 10 22 49 21 24 41 36 57 36 21 0 26 5
25 25 -1 18 33 70 52 80 1 0 1 -14 2 -32z m-82 -23 c-8 -8 -19 -15 -24 -15 -6
0 -13 -6 -15 -12 -4 -10 -6 -10 -6 -1 -1 12 36 43 52 43 5 0 2 -7 -7 -15z
m374 11 c0 -2 -8 -10 -17 -17 -16 -13 -17 -12 -4 4 13 16 21 21 21 13z m2754
-85 c-2 -3 -12 3 -22 13 -16 17 -16 18 5 5 12 -7 20 -15 17 -18z m-29 -40 c-3
-3 -18 8 -33 23 l-27 29 32 -23 c18 -13 30 -26 28 -29z m-2975 19 c0 -5 -8
-10 -17 -10 -15 0 -16 2 -3 10 19 12 20 12 20 0z m-450 -75 c-7 -8 -17 -15
-23 -15 -6 0 -2 7 9 15 25 19 30 19 14 0z m3286 -59 c-10 -27 -11 -27 -14 -6
-2 13 2 27 10 31 8 6 9 9 1 9 -7 0 -9 9 -5 23 6 22 6 22 12 -3 3 -14 1 -38 -4
-54z m-2676 55 c0 -5 -9 -7 -20 -4 -11 3 -20 7 -20 9 0 2 9 4 20 4 11 0 20 -4
20 -9z m-596 -45 c-6 -16 -34 -30 -42 -21 -6 5 28 34 40 35 4 0 5 -6 2 -14z
m3216 -41 c0 -12 -29 -3 -34 10 -4 13 -2 14 14 5 11 -6 20 -13 20 -15z"/>
<path d="M6900 7599 c-13 -9 -12 -10 3 -5 11 3 16 2 12 -4 -3 -6 -13 -10 -21
-10 -8 0 -14 -9 -13 -22 0 -13 3 -17 6 -10 2 6 10 12 17 12 7 0 18 11 24 25
13 28 0 34 -28 14z"/>
<path d="M5205 5000 c3 -5 8 -10 11 -10 2 0 4 5 4 10 0 6 -5 10 -11 10 -5 0
-7 -4 -4 -10z"/>
<path d="M6382 7943 c-7 -2 -27 -26 -44 -51 -23 -34 -34 -42 -36 -30 -2 10 -9
15 -18 11 -12 -4 -11 -8 6 -20 16 -11 18 -18 10 -33 -6 -10 -6 -21 -2 -24 10
-6 43 30 35 38 -3 3 9 19 26 36 17 17 31 36 31 41 0 5 9 9 19 9 11 0 21 6 24
13 3 9 10 9 28 -2 22 -13 23 -13 10 2 -13 16 -61 22 -89 10z"/>
<path d="M6254 7911 c0 -11 6 -23 13 -25 7 -3 13 -2 13 2 0 5 -6 16 -13 26
-12 16 -13 16 -13 -3z"/>
<path d="M6965 7919 c-11 -16 -1 -19 13 -3 7 8 8 14 3 14 -5 0 -13 -5 -16 -11z"/>
<path d="M6107 7814 c-15 -14 -25 -29 -22 -35 11 -16 23 -10 29 16 4 14 11 23
16 20 6 -3 10 1 10 9 0 21 0 21 -33 -10z"/>
<path d="M6900 7820 c-9 -6 -10 -10 -3 -10 6 0 15 5 18 10 8 12 4 12 -15 0z"/>
<path d="M6758 7803 c7 -3 16 -2 19 1 4 3 -2 6 -13 5 -11 0 -14 -3 -6 -6z"/>
<path d="M3570 7770 c-9 -6 -10 -10 -3 -10 6 0 15 5 18 10 8 12 4 12 -15 0z"/>
<path d="M6060 7743 c0 -9 -7 -25 -17 -35 -15 -17 -15 -18 13 -17 24 0 26 2 9
8 -19 8 -19 8 3 20 25 13 30 41 7 41 -8 0 -15 -8 -15 -17z"/>
<path d="M6036 7733 c-6 -14 -5 -15 5 -6 7 7 10 15 7 18 -3 3 -9 -2 -12 -12z"/>
<path d="M7117 7680 c-14 -11 -32 -20 -41 -20 -30 0 -16 -17 15 -18 23 0 29 3
25 14 -3 9 -1 12 4 9 6 -3 10 -1 10 5 0 6 5 8 11 4 8 -4 8 -9 0 -17 -6 -6 -11
-16 -11 -21 0 -6 8 0 17 14 12 17 13 25 5 28 -7 2 -10 8 -6 13 8 14 -1 11 -29
-11z"/>
<path d="M5985 7663 c-11 -14 -19 -30 -17 -35 1 -4 -2 -8 -8 -8 -5 0 -10 -6
-10 -12 -1 -24 -29 -50 -62 -57 -19 -5 -32 -13 -30 -21 2 -8 -3 -10 -13 -7
-11 5 -15 0 -15 -19 0 -15 4 -23 11 -19 6 4 10 1 8 -6 -4 -35 4 -35 36 -2 40
41 43 53 15 53 -11 0 -20 -7 -20 -15 0 -8 -7 -15 -17 -15 -14 0 -14 2 2 20 11
12 28 20 39 19 37 -2 46 1 46 17 0 9 11 27 26 40 14 13 21 24 17 24 -4 0 -3 4
2 8 16 11 34 49 28 56 -11 10 -18 7 -38 -21z"/>
<path d="M7014 7631 c0 -17 4 -31 8 -31 11 0 10 32 -1 49 -6 9 -8 4 -7 -18z"/>
<path d="M4330 7570 c0 -5 5 -10 10 -10 6 0 10 5 10 10 0 6 -4 10 -10 10 -5 0
-10 -4 -10 -10z"/>
<path d="M3572 7541 c-8 -4 -5 -11 8 -19 16 -10 20 -10 20 2 0 19 -13 27 -28
17z"/>
<path d="M7058 7523 c7 -3 16 -2 19 1 4 3 -2 6 -13 5 -11 0 -14 -3 -6 -6z"/>
<path d="M3636 7482 c-3 -5 1 -9 9 -9 8 0 12 4 9 9 -3 4 -7 8 -9 8 -2 0 -6 -4
-9 -8z"/>
<path d="M7021 7414 c0 -11 3 -14 6 -6 3 7 2 16 -1 19 -3 4 -6 -2 -5 -13z"/>
<path d="M4776 5733 c-6 -14 -5 -15 5 -6 7 7 10 15 7 18 -3 3 -9 -2 -12 -12z"/>
<path d="M4030 4740 c-6 -11 -8 -20 -6 -20 3 0 10 9 16 20 6 11 8 20 6 20 -3
0 -10 -9 -16 -20z"/>
<path d="M2930 1778 c-12 -8 -11 -9 4 -4 15 5 18 2 14 -17 -3 -15 0 -24 9 -24
17 0 17 31 0 45 -9 8 -17 8 -27 0z"/>
<path d="M2898 1663 c7 -3 16 -2 19 1 4 3 -2 6 -13 5 -11 0 -14 -3 -6 -6z"/>
<path d="M2351 914 c0 -11 3 -14 6 -6 3 7 2 16 -1 19 -3 4 -6 -2 -5 -13z"/>
<path d="M2175 730 c4 -6 11 -8 16 -5 14 9 11 15 -7 15 -8 0 -12 -5 -9 -10z"/>
<path d="M2155 660 c-3 -5 -1 -10 4 -10 6 0 11 5 11 10 0 6 -2 10 -4 10 -3 0
-8 -4 -11 -10z"/>
<path d="M2134 602 c-6 -4 -8 -16 -4 -27 6 -17 7 -16 12 8 3 15 5 27 4 27 0 0
-6 -4 -12 -8z"/>
<path d="M2090 510 c0 -5 4 -10 9 -10 6 0 13 5 16 10 3 6 -1 10 -9 10 -9 0
-16 -4 -16 -10z"/>
<path d="M927 496 c-4 -10 -1 -13 8 -9 8 3 12 9 9 14 -7 12 -11 11 -17 -5z"/>
<path d="M2080 480 c-8 -5 -10 -10 -5 -10 6 0 17 5 25 10 8 5 11 10 5 10 -5 0
-17 -5 -25 -10z"/>
<path d="M891 443 c-1 -27 8 -53 20 -53 5 0 9 9 9 20 0 11 -4 20 -9 20 -5 0
-12 8 -14 18 -4 13 -5 12 -6 -5z"/>
<path d="M900 336 c0 -2 7 -7 16 -10 8 -3 12 -2 9 4 -6 10 -25 14 -25 6z"/>
<path d="M4644 288 l-19 -23 23 19 c12 11 22 21 22 23 0 8 -8 2 -26 -19z"/>
<path d="M1345 160 c-3 -5 -1 -10 4 -10 6 0 11 5 11 10 0 6 -2 10 -4 10 -3 0
-8 -4 -11 -10z"/>
<path d="M1290 140 c-8 -5 -12 -12 -9 -15 4 -3 12 1 19 10 14 17 11 19 -10 5z"/>
<path d="M1020 82 c0 -7 -9 -12 -20 -12 -21 0 -27 -15 -10 -25 8 -5 7 -12 -2
-23 -11 -15 3 -6 42 27 3 2 -4 1 -14 -3 -19 -7 -19 -6 -1 14 10 11 15 23 12
27 -4 3 -7 1 -7 -5z"/>
<path d="M1190 80 c0 -5 5 -10 10 -10 6 0 10 5 10 10 0 6 -4 10 -10 10 -5 0
-10 -4 -10 -10z"/>
</g>
</svg>
