<svg id="svg" xmlns="http://www.w3.org/2000/svg" xmlns:xlink="http://www.w3.org/1999/xlink" width="400" height="400" viewBox="0, 0, 400,400"><g id="svgg"><path id="path0" d="M192.808 0.208 C 188.005 0.395,180.011 0.985,179.883 1.162 C 179.829 1.237,178.379 1.450,176.660 1.636 C 172.440 2.093,165.160 3.141,165.039 3.309 C 164.985 3.384,164.282 3.554,163.477 3.686 C 160.555 4.167,154.783 5.336,154.688 5.465 C 154.634 5.539,152.568 6.061,150.098 6.627 C 147.627 7.193,145.562 7.716,145.508 7.789 C 145.454 7.861,143.828 8.349,141.895 8.872 C 139.961 9.395,138.335 9.880,138.281 9.950 C 138.228 10.020,137.217 10.369,136.035 10.725 C 133.165 11.591,131.564 12.139,131.445 12.297 C 131.392 12.368,130.645 12.659,129.785 12.944 C 127.154 13.814,125.883 14.289,125.781 14.441 C 125.728 14.521,125.288 14.724,124.805 14.893 C 122.316 15.760,120.613 16.431,120.517 16.581 C 120.458 16.673,119.795 16.983,119.043 17.270 C 118.291 17.557,117.212 18.007,116.646 18.271 C 116.080 18.534,115.494 18.750,115.344 18.750 C 115.194 18.750,115.042 18.832,115.007 18.933 C 114.930 19.149,111.606 20.703,111.221 20.703 C 111.076 20.703,110.887 20.818,110.801 20.959 C 110.715 21.099,110.205 21.414,109.668 21.659 C 107.952 22.441,106.546 23.141,106.445 23.262 C 106.392 23.327,105.381 23.855,104.199 24.434 C 103.018 25.014,101.963 25.590,101.855 25.715 C 101.748 25.840,100.935 26.313,100.049 26.765 C 99.163 27.218,98.438 27.659,98.438 27.746 C 98.438 27.833,98.240 27.965,97.998 28.041 C 97.756 28.117,97.119 28.457,96.582 28.796 C 96.045 29.136,95.326 29.527,94.985 29.666 C 94.643 29.805,94.324 30.023,94.275 30.150 C 94.226 30.278,93.696 30.630,93.097 30.933 C 92.497 31.236,91.780 31.695,91.501 31.953 C 91.223 32.211,90.950 32.422,90.894 32.422 C 90.839 32.422,90.410 32.686,89.941 33.008 C 89.473 33.330,89.009 33.594,88.909 33.594 C 88.810 33.594,88.476 33.828,88.167 34.115 C 87.858 34.401,87.078 34.944,86.434 35.322 C 85.790 35.699,85.060 36.212,84.810 36.461 C 84.561 36.710,84.307 36.914,84.246 36.914 C 84.185 36.914,83.715 37.222,83.203 37.598 C 82.691 37.974,82.179 38.281,82.065 38.281 C 81.951 38.281,81.743 38.443,81.603 38.642 C 81.463 38.840,80.733 39.422,79.982 39.935 C 79.231 40.448,78.501 41.033,78.360 41.235 C 78.218 41.436,78.017 41.602,77.913 41.602 C 77.719 41.602,75.996 42.870,75.293 43.531 C 75.078 43.733,74.477 44.217,73.957 44.607 C 73.437 44.997,72.646 45.666,72.199 46.093 C 71.752 46.521,71.285 46.872,71.160 46.873 C 71.035 46.874,70.720 47.128,70.460 47.438 C 70.199 47.747,69.554 48.330,69.026 48.733 C 68.498 49.136,67.694 49.827,67.238 50.270 C 66.783 50.712,65.948 51.489,65.383 51.996 C 64.818 52.503,63.323 53.910,62.061 55.121 C 60.799 56.333,59.480 57.597,59.131 57.930 C 58.782 58.263,58.367 58.725,58.209 58.956 C 58.051 59.186,57.809 59.375,57.672 59.375 C 57.534 59.375,57.422 59.444,57.422 59.528 C 57.422 59.612,56.477 60.649,55.322 61.833 C 54.167 63.016,52.839 64.420,52.370 64.951 C 51.902 65.483,51.111 66.382,50.613 66.949 C 50.115 67.517,49.333 68.355,48.877 68.813 C 48.420 69.270,48.047 69.732,48.047 69.839 C 48.047 69.946,47.603 70.470,47.059 71.003 C 46.516 71.536,46.011 72.117,45.936 72.294 C 45.862 72.472,45.430 73.043,44.978 73.564 C 43.642 75.102,42.578 76.506,42.578 76.730 C 42.578 76.845,42.412 77.028,42.210 77.136 C 42.007 77.245,41.506 77.841,41.097 78.462 C 40.687 79.082,40.107 79.837,39.809 80.138 C 39.510 80.440,39.125 80.983,38.953 81.345 C 38.781 81.707,38.340 82.313,37.973 82.691 C 37.605 83.070,37.305 83.438,37.305 83.509 C 37.305 83.581,36.997 84.058,36.621 84.570 C 36.245 85.082,35.936 85.578,35.934 85.671 C 35.932 85.764,35.731 86.030,35.486 86.261 C 35.241 86.493,34.834 87.085,34.581 87.577 C 34.328 88.069,33.826 88.803,33.467 89.207 C 33.107 89.611,32.813 90.013,32.813 90.102 C 32.813 90.190,32.549 90.645,32.227 91.113 C 31.904 91.582,31.641 92.059,31.641 92.174 C 31.641 92.289,31.455 92.569,31.227 92.796 C 31.000 93.024,30.463 93.837,30.035 94.603 C 29.607 95.369,29.156 96.084,29.033 96.191 C 28.909 96.299,28.413 97.159,27.930 98.102 C 27.446 99.046,26.916 99.969,26.752 100.153 C 26.588 100.337,26.033 101.322,25.518 102.341 C 25.003 103.360,24.515 104.239,24.435 104.294 C 24.354 104.349,23.866 105.273,23.351 106.348 C 22.836 107.422,22.340 108.348,22.250 108.405 C 22.160 108.462,21.854 109.034,21.571 109.675 C 21.287 110.315,20.888 111.186,20.684 111.609 C 20.480 112.032,20.312 112.487,20.312 112.620 C 20.312 112.754,20.176 112.999,20.009 113.166 C 19.842 113.333,19.310 114.414,18.826 115.568 C 18.343 116.722,17.881 117.712,17.801 117.769 C 17.720 117.825,17.368 118.618,17.017 119.531 C 16.154 121.784,15.754 122.735,15.624 122.852 C 15.564 122.905,15.268 123.608,14.967 124.414 C 14.666 125.220,14.254 126.318,14.053 126.855 C 13.851 127.393,13.629 128.074,13.560 128.369 C 13.491 128.665,13.365 128.906,13.280 128.906 C 13.133 128.906,11.328 134.281,11.328 134.719 C 11.328 134.834,11.251 134.958,11.156 134.993 C 11.002 135.052,9.756 138.957,9.172 141.211 C 9.046 141.694,8.878 142.134,8.798 142.188 C 8.637 142.295,6.836 149.319,6.836 149.839 C 6.836 150.017,6.760 150.192,6.667 150.228 C 6.479 150.300,5.992 152.358,5.150 156.641 C 4.843 158.198,4.536 159.517,4.466 159.570 C 4.292 159.704,3.251 166.136,2.712 170.410 C 2.468 172.344,2.208 173.970,2.134 174.023 C 1.954 174.155,1.227 182.529,0.955 187.598 C 0.705 192.276,0.836 209.016,1.154 212.891 C 1.631 218.712,2.017 222.566,2.132 222.656 C 2.200 222.710,2.453 224.336,2.695 226.270 C 3.245 230.665,4.304 237.175,4.490 237.305 C 4.567 237.358,4.784 238.281,4.973 239.355 C 5.162 240.430,5.517 242.188,5.762 243.262 C 6.007 244.336,6.269 245.566,6.344 245.996 C 6.420 246.425,6.542 246.821,6.617 246.875 C 6.692 246.929,7.179 248.687,7.699 250.781 C 8.219 252.876,8.706 254.634,8.780 254.688 C 8.854 254.741,9.069 255.356,9.257 256.055 C 9.944 258.608,11.001 262.014,11.137 262.109 C 11.213 262.163,11.338 262.427,11.414 262.695 C 11.874 264.319,13.199 268.278,13.309 268.360 C 13.463 268.475,13.768 269.254,14.758 272.070 C 15.155 273.198,15.537 274.165,15.608 274.219 C 15.730 274.312,16.224 275.483,17.216 278.027 C 17.467 278.672,17.735 279.246,17.811 279.303 C 17.951 279.407,18.934 281.660,19.468 283.103 C 19.627 283.532,19.832 283.929,19.925 283.986 C 20.017 284.043,20.547 285.099,21.103 286.332 C 21.659 287.565,22.182 288.618,22.264 288.672 C 22.347 288.726,22.824 289.645,23.323 290.715 C 23.822 291.785,24.304 292.707,24.394 292.765 C 24.485 292.824,24.987 293.750,25.512 294.824 C 26.036 295.898,26.530 296.806,26.610 296.842 C 26.690 296.878,27.164 297.696,27.662 298.661 C 28.160 299.625,28.666 300.521,28.786 300.650 C 28.906 300.780,29.146 301.148,29.320 301.468 C 30.561 303.753,30.931 304.368,31.263 304.701 C 31.471 304.908,31.641 305.164,31.641 305.270 C 31.641 305.375,31.948 305.942,32.324 306.530 C 32.700 307.118,33.009 307.669,33.011 307.754 C 33.013 307.840,33.211 308.098,33.451 308.327 C 33.690 308.556,34.150 309.249,34.471 309.868 C 34.792 310.487,35.298 311.222,35.594 311.502 C 35.890 311.782,36.133 312.078,36.133 312.161 C 36.133 312.345,37.494 314.442,37.870 314.837 C 38.020 314.995,38.537 315.742,39.020 316.498 C 39.502 317.253,39.970 317.900,40.060 317.934 C 40.150 317.969,40.628 318.606,41.123 319.350 C 41.618 320.094,42.106 320.703,42.209 320.703 C 42.311 320.703,42.450 320.857,42.517 321.045 C 42.584 321.233,42.917 321.738,43.257 322.168 C 43.598 322.598,43.933 323.103,44.002 323.291 C 44.072 323.479,44.212 323.633,44.314 323.633 C 44.416 323.633,44.961 324.270,45.523 325.049 C 46.086 325.828,46.667 326.537,46.814 326.624 C 46.961 326.712,47.300 327.130,47.567 327.553 C 47.835 327.976,48.447 328.693,48.929 329.147 C 49.411 329.600,49.806 330.061,49.809 330.171 C 49.811 330.281,50.228 330.819,50.736 331.367 C 51.576 332.273,54.317 335.277,55.431 336.512 C 56.097 337.250,59.945 341.141,61.261 342.406 C 61.889 343.010,62.849 343.976,63.394 344.554 C 63.940 345.133,64.775 345.923,65.250 346.312 C 65.725 346.701,66.471 347.360,66.909 347.777 C 68.793 349.573,70.979 351.475,71.303 351.600 C 71.496 351.675,71.750 351.915,71.867 352.133 C 71.984 352.352,72.610 352.891,73.259 353.332 C 73.908 353.772,74.485 354.253,74.541 354.401 C 74.598 354.548,75.054 354.932,75.556 355.254 C 76.058 355.576,76.731 356.087,77.052 356.390 C 77.374 356.694,78.142 357.324,78.760 357.791 C 79.377 358.259,79.883 358.698,79.883 358.767 C 79.883 358.835,80.054 358.979,80.263 359.085 C 81.021 359.469,82.926 360.839,83.575 361.467 C 83.940 361.820,84.320 362.109,84.418 362.109 C 84.647 362.109,85.986 363.104,86.191 363.427 C 86.277 363.561,86.431 363.672,86.533 363.672 C 86.635 363.672,87.146 363.979,87.669 364.355 C 88.193 364.731,88.698 365.039,88.793 365.039 C 88.888 365.039,89.350 365.391,89.820 365.820 C 90.290 366.250,90.753 366.602,90.849 366.602 C 91.102 366.602,92.648 367.628,92.832 367.918 C 92.918 368.053,93.069 368.164,93.167 368.164 C 93.344 368.164,95.365 369.409,96.262 370.070 C 96.516 370.257,97.351 370.746,98.118 371.157 C 98.884 371.568,99.602 372.007,99.712 372.134 C 99.929 372.383,100.623 372.777,102.441 373.686 C 103.086 374.008,103.642 374.346,103.677 374.436 C 103.712 374.527,104.679 375.060,105.825 375.622 C 106.972 376.183,107.998 376.747,108.105 376.874 C 108.213 377.001,109.136 377.476,110.156 377.929 C 111.177 378.382,112.056 378.821,112.109 378.903 C 112.163 378.986,113.130 379.474,114.258 379.988 C 115.386 380.502,116.338 380.996,116.374 381.086 C 116.410 381.176,116.523 381.250,116.625 381.250 C 116.728 381.250,117.490 381.547,118.318 381.910 C 119.146 382.273,120.220 382.732,120.703 382.930 C 121.187 383.128,121.626 383.348,121.680 383.418 C 121.733 383.488,122.393 383.782,123.145 384.072 C 123.896 384.361,124.941 384.767,125.465 384.975 C 125.990 385.182,126.502 385.352,126.602 385.352 C 126.703 385.352,126.915 385.481,127.074 385.640 C 127.232 385.798,127.775 386.057,128.281 386.214 C 130.181 386.807,132.119 387.521,132.220 387.665 C 132.306 387.789,135.050 388.706,138.281 389.692 C 138.657 389.807,139.009 389.966,139.063 390.045 C 139.149 390.174,141.570 390.893,144.720 391.727 C 145.308 391.882,145.835 392.074,145.892 392.154 C 145.988 392.287,152.737 393.989,154.297 394.273 C 154.673 394.341,155.024 394.458,155.078 394.532 C 155.174 394.665,160.805 395.829,163.672 396.310 C 164.478 396.445,165.181 396.615,165.234 396.688 C 165.390 396.901,175.255 398.263,178.711 398.550 C 179.624 398.625,180.416 398.755,180.470 398.839 C 180.880 399.467,202.063 400.032,210.156 399.631 C 216.360 399.323,220.508 398.989,220.508 398.797 C 220.508 398.707,220.822 398.633,221.206 398.633 C 222.825 398.633,235.558 396.934,235.742 396.693 C 235.796 396.623,237.422 396.278,239.355 395.928 C 243.897 395.104,245.777 394.708,245.898 394.548 C 245.952 394.478,247.974 393.961,250.391 393.401 C 252.808 392.840,254.814 392.294,254.850 392.187 C 254.886 392.080,255.052 391.992,255.219 391.992 C 255.489 391.992,257.436 391.470,260.791 390.498 C 261.409 390.319,261.914 390.099,261.914 390.008 C 261.914 389.918,262.029 389.844,262.170 389.844 C 262.562 389.844,268.639 387.868,268.750 387.704 C 268.804 387.625,270.027 387.155,271.468 386.660 C 272.909 386.164,274.139 385.678,274.202 385.578 C 274.265 385.479,274.712 385.263,275.195 385.098 C 276.896 384.519,279.173 383.599,279.283 383.448 C 279.391 383.300,282.829 381.830,284.131 381.376 C 284.480 381.254,284.766 381.102,284.766 381.039 C 284.766 380.975,285.710 380.494,286.865 379.970 C 288.020 379.446,289.012 378.953,289.069 378.873 C 289.126 378.793,290.048 378.322,291.118 377.825 C 292.187 377.329,293.107 376.853,293.162 376.769 C 293.217 376.684,294.185 376.156,295.313 375.595 C 296.440 375.034,297.390 374.501,297.423 374.412 C 297.456 374.322,298.205 373.896,299.087 373.465 C 299.969 373.034,300.953 372.456,301.273 372.181 C 301.593 371.906,301.928 371.680,302.017 371.680 C 302.241 371.680,304.904 370.096,305.327 369.711 C 305.517 369.538,306.165 369.141,306.766 368.829 C 307.367 368.517,308.046 368.065,308.275 367.826 C 308.504 367.586,308.754 367.388,308.831 367.386 C 309.017 367.382,311.345 365.908,311.719 365.558 C 311.880 365.408,312.649 364.878,313.428 364.382 C 314.207 363.885,314.844 363.406,314.844 363.316 C 314.844 363.226,315.085 363.027,315.381 362.875 C 315.909 362.604,317.778 361.346,317.969 361.133 C 318.267 360.802,319.714 359.766,319.878 359.766 C 319.984 359.766,320.411 359.428,320.827 359.015 C 321.242 358.602,321.934 358.039,322.363 357.765 C 322.793 357.490,323.474 356.949,323.877 356.563 C 324.280 356.176,324.679 355.859,324.764 355.859 C 324.848 355.859,325.377 355.442,325.938 354.932 C 326.500 354.421,327.356 353.696,327.839 353.320 C 328.323 352.944,329.055 352.329,329.465 351.953 C 331.228 350.337,333.288 348.517,333.613 348.287 C 333.806 348.151,334.752 347.250,335.714 346.285 C 336.677 345.321,337.527 344.531,337.603 344.531 C 337.778 344.531,342.299 339.872,346.777 335.076 C 347.870 333.906,349.274 332.303,350.215 331.152 C 350.654 330.615,351.466 329.667,352.020 329.045 C 352.574 328.422,353.053 327.841,353.084 327.752 C 353.115 327.662,353.533 327.163,354.012 326.641 C 354.491 326.119,354.883 325.615,354.883 325.522 C 354.883 325.428,355.278 324.950,355.762 324.460 C 356.245 323.970,356.641 323.468,356.641 323.346 C 356.641 323.223,356.949 322.787,357.326 322.375 C 357.995 321.644,359.766 319.254,359.766 319.081 C 359.766 319.034,360.069 318.663,360.441 318.257 C 360.812 317.852,361.248 317.248,361.409 316.915 C 361.570 316.581,362.014 315.963,362.394 315.541 C 362.775 315.118,363.086 314.695,363.086 314.599 C 363.086 314.422,364.226 312.677,364.457 312.500 C 364.652 312.351,366.016 310.168,366.016 310.006 C 366.016 309.927,366.322 309.519,366.696 309.099 C 367.071 308.678,367.435 308.152,367.505 307.929 C 367.647 307.482,368.513 306.070,368.836 305.758 C 369.079 305.523,369.362 305.040,370.255 303.327 C 370.617 302.633,370.988 302.018,371.079 301.960 C 371.170 301.903,371.707 300.977,372.273 299.902 C 372.839 298.828,373.365 297.905,373.443 297.852 C 373.521 297.798,374.010 296.875,374.530 295.801 C 375.051 294.727,375.525 293.804,375.585 293.750 C 375.830 293.528,376.340 292.590,376.965 291.211 C 377.331 290.405,377.730 289.641,377.853 289.512 C 377.976 289.383,378.490 288.294,378.994 287.091 C 379.499 285.888,380.023 284.793,380.160 284.656 C 380.296 284.520,380.516 284.115,380.648 283.757 C 380.780 283.399,381.102 282.642,381.362 282.076 C 381.623 281.509,381.836 280.922,381.836 280.771 C 381.836 280.620,381.963 280.369,382.119 280.214 C 382.274 280.058,382.816 278.843,383.322 277.514 C 383.828 276.185,384.308 275.054,384.388 275.000 C 384.534 274.902,384.859 274.043,385.980 270.801 C 386.314 269.834,386.645 268.999,386.715 268.945 C 386.786 268.892,387.276 267.529,387.806 265.918 C 388.335 264.307,388.826 262.944,388.897 262.891 C 389.014 262.802,390.587 257.538,390.910 256.154 C 390.985 255.833,391.120 255.525,391.210 255.469 C 391.380 255.364,393.164 248.348,393.164 247.783 C 393.164 247.606,393.239 247.461,393.330 247.461 C 393.421 247.461,393.695 246.516,393.940 245.361 C 394.184 244.207,394.497 242.778,394.636 242.188 C 394.774 241.597,394.999 240.454,395.135 239.648 C 395.272 238.843,395.445 238.140,395.522 238.086 C 395.708 237.955,396.763 231.576,397.300 227.338 C 397.538 225.461,397.791 223.882,397.862 223.828 C 397.994 223.728,398.485 219.021,398.820 214.648 C 399.721 202.891,399.524 188.069,398.309 176.123 C 398.126 174.324,397.904 172.852,397.816 172.852 C 397.728 172.852,397.655 172.566,397.654 172.217 C 397.648 170.792,395.754 158.579,395.511 158.398 C 395.439 158.345,395.192 157.334,394.964 156.152 C 394.199 152.203,393.510 149.122,393.368 149.023 C 393.291 148.970,392.807 147.234,392.294 145.166 C 391.780 143.098,391.282 141.406,391.188 141.406 C 391.093 141.406,391.016 141.280,391.016 141.125 C 391.016 140.736,389.023 134.105,388.869 133.984 C 388.801 133.931,388.323 132.590,387.807 131.006 C 387.291 129.421,386.791 128.125,386.696 128.125 C 386.601 128.125,386.523 128.005,386.523 127.858 C 386.523 127.711,386.356 127.162,386.152 126.637 C 385.948 126.113,385.495 124.894,385.144 123.929 C 384.793 122.963,384.389 122.056,384.245 121.913 C 384.102 121.769,383.984 121.560,383.984 121.449 C 383.984 121.072,382.370 117.188,382.213 117.187 C 382.127 117.187,381.999 116.990,381.927 116.748 C 381.634 115.762,380.219 112.695,380.057 112.695 C 379.961 112.695,379.884 112.585,379.886 112.451 C 379.890 112.157,377.902 107.759,377.698 107.610 C 377.619 107.553,377.143 106.674,376.639 105.657 C 376.136 104.641,375.650 103.760,375.559 103.701 C 375.469 103.641,375.006 102.794,374.531 101.818 C 374.056 100.842,373.587 100.012,373.488 99.973 C 373.328 99.910,372.760 98.880,371.643 96.631 C 371.444 96.228,371.212 95.898,371.129 95.898 C 371.046 95.898,370.686 95.328,370.329 94.632 C 369.971 93.935,369.470 93.140,369.215 92.864 C 368.959 92.588,368.750 92.300,368.750 92.224 C 368.750 92.147,368.442 91.628,368.066 91.070 C 367.690 90.511,367.383 89.979,367.383 89.887 C 367.383 89.794,367.126 89.431,366.812 89.079 C 366.498 88.728,365.905 87.866,365.495 87.164 C 365.085 86.463,364.639 85.847,364.503 85.795 C 364.368 85.743,364.258 85.622,364.258 85.526 C 364.258 85.431,363.950 84.924,363.574 84.401 C 363.198 83.878,362.890 83.372,362.889 83.277 C 362.887 83.183,362.588 82.815,362.222 82.460 C 361.857 82.105,361.423 81.531,361.259 81.185 C 361.095 80.839,360.695 80.250,360.371 79.877 C 360.047 79.504,359.363 78.628,358.852 77.930 C 358.341 77.231,357.874 76.616,357.816 76.563 C 357.482 76.256,356.055 74.435,356.055 74.315 C 356.055 74.237,355.697 73.815,355.259 73.377 C 354.822 72.940,354.339 72.340,354.186 72.045 C 354.033 71.750,353.729 71.382,353.509 71.228 C 353.290 71.075,352.782 70.509,352.381 69.971 C 351.980 69.434,351.368 68.698,351.021 68.335 C 349.589 66.838,348.633 65.762,348.636 65.648 C 348.638 65.582,348.120 65.000,347.485 64.355 C 346.850 63.711,344.454 61.263,342.160 58.916 C 337.652 54.305,337.825 54.477,337.109 53.887 C 336.491 53.376,333.904 51.028,332.345 49.562 C 331.689 48.944,331.045 48.439,330.913 48.439 C 330.781 48.438,330.530 48.219,330.355 47.951 C 330.179 47.684,329.474 47.064,328.788 46.574 C 328.101 46.084,327.539 45.603,327.539 45.504 C 327.539 45.406,327.321 45.211,327.055 45.071 C 326.788 44.932,326.151 44.446,325.639 43.993 C 325.126 43.540,324.092 42.725,323.340 42.182 C 322.588 41.639,321.581 40.847,321.103 40.422 C 320.625 39.996,320.134 39.648,320.013 39.648 C 319.891 39.648,319.404 39.291,318.931 38.854 C 318.458 38.418,317.793 37.928,317.454 37.767 C 317.114 37.606,316.586 37.219,316.279 36.907 C 315.973 36.594,315.657 36.337,315.577 36.334 C 315.496 36.331,315.013 36.038,314.502 35.684 C 313.992 35.330,313.333 34.920,313.037 34.772 C 312.742 34.625,312.500 34.435,312.500 34.351 C 312.500 34.266,311.876 33.833,311.114 33.388 C 310.352 32.942,309.585 32.411,309.411 32.207 C 309.236 32.003,309.001 31.836,308.890 31.836 C 308.778 31.836,308.229 31.528,307.671 31.152 C 307.113 30.776,306.568 30.469,306.461 30.469 C 306.353 30.469,306.108 30.304,305.916 30.103 C 305.724 29.902,304.978 29.423,304.260 29.038 C 302.412 28.048,302.102 27.865,301.791 27.578 C 301.639 27.439,300.801 26.966,299.927 26.528 C 299.054 26.090,298.290 25.654,298.229 25.558 C 298.167 25.462,297.201 24.933,296.080 24.382 C 294.960 23.832,293.999 23.320,293.945 23.245 C 293.892 23.170,292.969 22.687,291.895 22.172 C 290.820 21.656,289.897 21.171,289.844 21.093 C 289.711 20.900,286.926 19.626,286.284 19.465 C 286.001 19.393,285.634 19.200,285.469 19.035 C 285.303 18.869,284.089 18.290,282.771 17.748 C 281.452 17.206,280.329 16.704,280.274 16.632 C 280.220 16.559,279.648 16.295,279.004 16.045 C 278.359 15.795,277.321 15.378,276.696 15.119 C 276.071 14.860,275.472 14.648,275.364 14.648 C 275.256 14.648,275.057 14.538,274.923 14.404 C 274.788 14.269,273.542 13.771,272.153 13.296 C 270.765 12.822,269.585 12.370,269.531 12.293 C 269.420 12.132,267.316 11.402,264.746 10.633 C 263.779 10.343,262.944 10.050,262.891 9.982 C 262.770 9.828,260.696 9.179,258.105 8.485 C 257.031 8.197,256.108 7.901,256.055 7.828 C 255.962 7.700,251.784 6.637,248.633 5.939 C 247.827 5.760,247.124 5.552,247.070 5.475 C 246.980 5.347,241.577 4.229,238.379 3.677 C 237.627 3.547,236.968 3.379,236.914 3.302 C 236.794 3.133,227.970 1.866,224.609 1.536 C 223.267 1.404,222.124 1.234,222.070 1.159 C 221.585 0.474,202.176 -0.156,192.808 0.208 M221.680 98.242 L 221.680 133.789 222.363 133.789 C 222.917 133.789,223.047 133.715,223.047 133.398 C 223.047 133.181,223.177 133.008,223.340 133.008 C 223.503 133.008,223.633 132.834,223.633 132.617 C 223.633 132.357,223.763 132.227,224.023 132.227 C 224.240 132.227,224.414 132.096,224.414 131.934 C 224.414 131.772,224.546 131.641,224.707 131.641 C 224.870 131.641,225.000 131.467,225.000 131.250 C 225.000 130.990,225.130 130.859,225.391 130.859 C 225.608 130.859,225.781 130.729,225.781 130.566 C 225.781 130.404,225.955 130.273,226.172 130.273 C 226.432 130.273,226.563 130.143,226.563 129.883 C 226.563 129.666,226.693 129.492,226.855 129.492 C 227.017 129.492,227.148 129.360,227.148 129.199 C 227.148 129.036,227.322 128.906,227.539 128.906 C 227.799 128.906,227.930 128.776,227.930 128.516 C 227.930 128.299,228.060 128.125,228.223 128.125 C 228.384 128.125,228.516 127.993,228.516 127.832 C 228.516 127.669,228.689 127.539,228.906 127.539 C 229.167 127.539,229.297 127.409,229.297 127.148 C 229.297 126.931,229.427 126.758,229.590 126.758 C 229.751 126.758,229.883 126.626,229.883 126.465 C 229.883 126.302,230.056 126.172,230.273 126.172 C 230.534 126.172,230.664 126.042,230.664 125.781 C 230.664 125.564,230.794 125.391,230.957 125.391 C 231.118 125.391,231.250 125.259,231.250 125.098 C 231.250 124.935,231.424 124.805,231.641 124.805 C 231.901 124.805,232.031 124.674,232.031 124.414 C 232.031 124.197,232.161 124.023,232.324 124.023 C 232.485 124.023,232.617 123.892,232.617 123.730 C 232.617 123.568,232.791 123.438,233.008 123.438 C 233.268 123.438,233.398 123.307,233.398 123.047 C 233.398 122.830,233.529 122.656,233.691 122.656 C 233.853 122.656,233.984 122.524,233.984 122.363 C 233.984 122.201,234.158 122.070,234.375 122.070 C 234.635 122.070,234.766 121.940,234.766 121.680 C 234.766 121.463,234.896 121.289,235.059 121.289 C 235.263 121.289,235.352 121.083,235.352 120.605 C 235.352 120.052,235.426 119.922,235.742 119.922 C 236.003 119.922,236.133 119.792,236.133 119.531 C 236.133 119.314,236.263 119.141,236.426 119.141 C 236.587 119.141,236.719 119.009,236.719 118.848 C 236.719 118.685,236.892 118.555,237.109 118.555 C 237.370 118.555,237.500 118.424,237.500 118.164 C 237.500 117.904,237.630 117.773,237.891 117.773 C 238.108 117.773,238.281 117.643,238.281 117.480 C 238.281 117.319,238.413 117.188,238.574 117.188 C 238.737 117.188,238.867 117.014,238.867 116.797 C 238.867 116.536,238.997 116.406,239.258 116.406 C 239.475 116.406,239.648 116.276,239.648 116.113 C 239.648 115.952,239.780 115.820,239.941 115.820 C 240.104 115.820,240.234 115.647,240.234 115.430 C 240.234 115.169,240.365 115.039,240.625 115.039 C 240.842 115.039,241.016 114.909,241.016 114.746 C 241.016 114.585,241.147 114.453,241.309 114.453 C 241.471 114.453,241.602 114.280,241.602 114.063 C 241.602 113.802,241.732 113.672,241.992 113.672 C 242.209 113.672,242.383 113.542,242.383 113.379 C 242.383 113.218,242.515 113.086,242.676 113.086 C 242.839 113.086,242.969 112.912,242.969 112.695 C 242.969 112.435,243.099 112.305,243.359 112.305 C 243.576 112.305,243.750 112.174,243.750 112.012 C 243.750 111.851,243.882 111.719,244.043 111.719 C 244.206 111.719,244.336 111.545,244.336 111.328 C 244.336 111.068,244.466 110.938,244.727 110.938 C 244.944 110.938,245.117 110.807,245.117 110.645 C 245.117 110.483,245.249 110.352,245.410 110.352 C 245.573 110.352,245.703 110.178,245.703 109.961 C 245.703 109.701,245.833 109.570,246.094 109.570 C 246.354 109.570,246.484 109.440,246.484 109.180 C 246.484 108.963,246.615 108.789,246.777 108.789 C 246.938 108.789,247.070 108.657,247.070 108.496 C 247.070 108.333,247.244 108.203,247.461 108.203 C 247.721 108.203,247.852 108.073,247.852 107.813 C 247.852 107.595,247.982 107.422,248.145 107.422 C 248.306 107.422,248.438 107.290,248.438 107.129 C 248.438 106.966,248.611 106.836,248.828 106.836 C 249.089 106.836,249.219 106.706,249.219 106.445 C 249.219 106.185,249.349 106.055,249.609 106.055 C 249.826 106.055,250.000 105.924,250.000 105.762 C 250.000 105.601,250.132 105.469,250.293 105.469 C 250.456 105.469,250.586 105.295,250.586 105.078 C 250.586 104.818,250.716 104.688,250.977 104.688 C 251.194 104.688,251.367 104.557,251.367 104.395 C 251.367 104.233,251.499 104.102,251.660 104.102 C 251.823 104.102,251.953 103.928,251.953 103.711 C 251.953 103.451,252.083 103.320,252.344 103.320 C 252.561 103.320,252.734 103.190,252.734 103.027 C 252.734 102.866,252.866 102.734,253.027 102.734 C 253.190 102.734,253.320 102.561,253.320 102.344 C 253.320 102.083,253.451 101.953,253.711 101.953 C 253.928 101.953,254.102 101.823,254.102 101.660 C 254.102 101.499,254.233 101.367,254.395 101.367 C 254.557 101.367,254.688 101.194,254.688 100.977 C 254.688 100.716,254.818 100.586,255.078 100.586 C 255.295 100.586,255.469 100.456,255.469 100.293 C 255.469 100.132,255.601 100.000,255.762 100.000 C 255.924 100.000,256.055 99.826,256.055 99.609 C 256.055 99.349,256.185 99.219,256.445 99.219 C 256.662 99.219,256.836 99.089,256.836 98.926 C 256.836 98.765,256.968 98.633,257.129 98.633 C 257.292 98.633,257.422 98.459,257.422 98.242 C 257.422 97.982,257.552 97.852,257.813 97.852 C 258.073 97.852,258.203 97.721,258.203 97.461 C 258.203 97.244,258.333 97.070,258.496 97.070 C 258.657 97.070,258.789 96.938,258.789 96.777 C 258.789 96.615,258.963 96.484,259.180 96.484 C 259.440 96.484,259.570 96.354,259.570 96.094 C 259.570 95.877,259.701 95.703,259.863 95.703 C 260.024 95.703,260.156 95.571,260.156 95.410 C 260.156 95.247,260.330 95.117,260.547 95.117 C 260.807 95.117,260.938 94.987,260.938 94.727 C 260.938 94.466,261.068 94.336,261.328 94.336 C 261.545 94.336,261.719 94.206,261.719 94.043 C 261.719 93.882,261.851 93.750,262.012 93.750 C 262.174 93.750,262.305 93.576,262.305 93.359 C 262.305 93.099,262.435 92.969,262.695 92.969 C 262.912 92.969,263.086 92.839,263.086 92.676 C 263.086 92.515,263.218 92.383,263.379 92.383 C 263.542 92.383,263.672 92.209,263.672 91.992 C 263.672 91.732,263.802 91.602,264.063 91.602 C 264.280 91.602,264.453 91.471,264.453 91.309 C 264.453 91.147,264.585 91.016,264.746 91.016 C 264.909 91.016,265.039 90.842,265.039 90.625 C 265.039 90.365,265.169 90.234,265.430 90.234 C 265.746 90.234,265.820 90.104,265.820 89.551 C 265.820 89.073,265.909 88.867,266.113 88.867 C 266.274 88.867,266.406 88.735,266.406 88.574 C 266.406 88.411,266.580 88.281,266.797 88.281 C 267.057 88.281,267.188 88.151,267.188 87.891 C 267.188 87.674,267.318 87.500,267.480 87.500 C 267.642 87.500,267.773 87.368,267.773 87.207 C 267.773 87.044,267.947 86.914,268.164 86.914 C 268.424 86.914,268.555 86.784,268.555 86.523 C 268.555 86.306,268.685 86.133,268.848 86.133 C 269.009 86.133,269.141 86.001,269.141 85.840 C 269.141 85.677,269.314 85.547,269.531 85.547 C 269.792 85.547,269.922 85.417,269.922 85.156 C 269.922 84.939,270.052 84.766,270.215 84.766 C 270.378 84.766,270.508 84.592,270.508 84.375 C 270.508 84.059,270.638 83.984,271.191 83.984 C 271.745 83.984,271.875 84.059,271.875 84.375 C 271.875 84.635,272.005 84.766,272.266 84.766 C 272.526 84.766,272.656 84.896,272.656 85.156 C 272.656 85.417,272.786 85.547,273.047 85.547 C 273.264 85.547,273.438 85.677,273.438 85.840 C 273.438 86.001,273.569 86.133,273.730 86.133 C 273.893 86.133,274.023 86.306,274.023 86.523 C 274.023 86.784,274.154 86.914,274.414 86.914 C 274.631 86.914,274.805 87.044,274.805 87.207 C 274.805 87.368,274.937 87.500,275.098 87.500 C 275.260 87.500,275.391 87.674,275.391 87.891 C 275.391 88.151,275.521 88.281,275.781 88.281 C 275.998 88.281,276.172 88.411,276.172 88.574 C 276.172 88.735,276.304 88.867,276.465 88.867 C 276.628 88.867,276.758 89.041,276.758 89.258 C 276.758 89.518,276.888 89.648,277.148 89.648 C 277.365 89.648,277.539 89.779,277.539 89.941 C 277.539 90.103,277.671 90.234,277.832 90.234 C 277.995 90.234,278.125 90.408,278.125 90.625 C 278.125 90.885,278.255 91.016,278.516 91.016 C 278.733 91.016,278.906 91.146,278.906 91.309 C 278.906 91.470,279.038 91.602,279.199 91.602 C 279.362 91.602,279.492 91.775,279.492 91.992 C 279.492 92.253,279.622 92.383,279.883 92.383 C 280.100 92.383,280.273 92.513,280.273 92.676 C 280.273 92.837,280.405 92.969,280.566 92.969 C 280.729 92.969,280.859 93.142,280.859 93.359 C 280.859 93.620,280.990 93.750,281.250 93.750 C 281.467 93.750,281.641 93.880,281.641 94.043 C 281.641 94.204,281.772 94.336,281.934 94.336 C 282.096 94.336,282.227 94.510,282.227 94.727 C 282.227 94.987,282.357 95.117,282.617 95.117 C 282.834 95.117,283.008 95.247,283.008 95.410 C 283.008 95.571,283.140 95.703,283.301 95.703 C 283.464 95.703,283.594 95.877,283.594 96.094 C 283.594 96.354,283.724 96.484,283.984 96.484 C 284.201 96.484,284.375 96.615,284.375 96.777 C 284.375 96.940,284.549 97.070,284.766 97.070 C 285.026 97.070,285.156 97.201,285.156 97.461 C 285.156 97.678,285.286 97.852,285.449 97.852 C 285.612 97.852,285.742 98.025,285.742 98.242 C 285.742 98.503,285.872 98.633,286.133 98.633 C 286.350 98.633,286.523 98.763,286.523 98.926 C 286.523 99.087,286.655 99.219,286.816 99.219 C 286.979 99.219,287.109 99.392,287.109 99.609 C 287.109 99.870,287.240 100.000,287.500 100.000 C 287.717 100.000,287.891 100.130,287.891 100.293 C 287.891 100.454,288.022 100.586,288.184 100.586 C 288.346 100.586,288.477 100.760,288.477 100.977 C 288.477 101.237,288.607 101.367,288.867 101.367 C 289.084 101.367,289.258 101.497,289.258 101.660 C 289.258 101.821,289.390 101.953,289.551 101.953 C 289.714 101.953,289.844 102.127,289.844 102.344 C 289.844 102.604,289.974 102.734,290.234 102.734 C 290.451 102.734,290.625 102.865,290.625 103.027 C 290.625 103.188,290.757 103.320,290.918 103.320 C 291.081 103.320,291.211 103.494,291.211 103.711 C 291.211 103.971,291.341 104.102,291.602 104.102 C 291.819 104.102,291.992 104.232,291.992 104.395 C 291.992 104.556,292.124 104.688,292.285 104.688 C 292.448 104.688,292.578 104.861,292.578 105.078 C 292.578 105.339,292.708 105.469,292.969 105.469 C 293.285 105.469,293.359 105.599,293.359 106.152 C 293.359 106.630,293.448 106.836,293.652 106.836 C 293.813 106.836,293.945 106.968,293.945 107.129 C 293.945 107.292,294.119 107.422,294.336 107.422 C 294.596 107.422,294.727 107.552,294.727 107.813 C 294.727 108.030,294.857 108.203,295.020 108.203 C 295.181 108.203,295.313 108.335,295.313 108.496 C 295.313 108.659,295.486 108.789,295.703 108.789 C 295.964 108.789,296.094 108.919,296.094 109.180 C 296.094 109.440,296.224 109.570,296.484 109.570 C 296.745 109.570,296.875 109.701,296.875 109.961 C 296.875 110.178,297.005 110.352,297.168 110.352 C 297.329 110.352,297.461 110.483,297.461 110.645 C 297.461 110.807,297.635 110.938,297.852 110.938 C 298.112 110.938,298.242 111.068,298.242 111.328 C 298.242 111.545,298.372 111.719,298.535 111.719 C 298.740 111.719,298.828 111.925,298.828 112.402 C 298.828 112.880,298.740 113.086,298.535 113.086 C 298.374 113.086,298.242 113.218,298.242 113.379 C 298.242 113.542,298.069 113.672,297.852 113.672 C 297.591 113.672,297.461 113.802,297.461 114.063 C 297.461 114.280,297.331 114.453,297.168 114.453 C 297.007 114.453,296.875 114.585,296.875 114.746 C 296.875 114.909,296.701 115.039,296.484 115.039 C 296.224 115.039,296.094 115.169,296.094 115.430 C 296.094 115.690,295.964 115.820,295.703 115.820 C 295.486 115.820,295.313 115.951,295.313 116.113 C 295.313 116.274,295.181 116.406,295.020 116.406 C 294.857 116.406,294.727 116.580,294.727 116.797 C 294.727 117.057,294.596 117.188,294.336 117.188 C 294.119 117.188,293.945 117.318,293.945 117.480 C 293.945 117.642,293.813 117.773,293.652 117.773 C 293.490 117.773,293.359 117.947,293.359 118.164 C 293.359 118.424,293.229 118.555,292.969 118.555 C 292.752 118.555,292.578 118.685,292.578 118.848 C 292.578 119.009,292.446 119.141,292.285 119.141 C 292.122 119.141,291.992 119.314,291.992 119.531 C 291.992 119.792,291.862 119.922,291.602 119.922 C 291.385 119.922,291.211 120.052,291.211 120.215 C 291.211 120.376,291.079 120.508,290.918 120.508 C 290.755 120.508,290.625 120.681,290.625 120.898 C 290.625 121.215,290.495 121.289,289.941 121.289 C 289.388 121.289,289.258 121.363,289.258 121.680 C 289.258 121.940,289.128 122.070,288.867 122.070 C 288.650 122.070,288.477 122.201,288.477 122.363 C 288.477 122.524,288.345 122.656,288.184 122.656 C 288.021 122.656,287.891 122.830,287.891 123.047 C 287.891 123.307,287.760 123.438,287.500 123.438 C 287.283 123.438,287.109 123.568,287.109 123.730 C 287.109 123.892,286.978 124.023,286.816 124.023 C 286.654 124.023,286.523 124.197,286.523 124.414 C 286.523 124.674,286.393 124.805,286.133 124.805 C 285.916 124.805,285.742 124.935,285.742 125.098 C 285.742 125.259,285.610 125.391,285.449 125.391 C 285.286 125.391,285.156 125.564,285.156 125.781 C 285.156 126.042,285.026 126.172,284.766 126.172 C 284.549 126.172,284.375 126.302,284.375 126.465 C 284.375 126.628,284.201 126.758,283.984 126.758 C 283.724 126.758,283.594 126.888,283.594 127.148 C 283.594 127.365,283.464 127.539,283.301 127.539 C 283.140 127.539,283.008 127.671,283.008 127.832 C 283.008 127.995,282.834 128.125,282.617 128.125 C 282.357 128.125,282.227 128.255,282.227 128.516 C 282.227 128.733,282.096 128.906,281.934 128.906 C 281.772 128.906,281.641 129.038,281.641 129.199 C 281.641 129.362,281.467 129.492,281.250 129.492 C 280.990 129.492,280.859 129.622,280.859 129.883 C 280.859 130.100,280.729 130.273,280.566 130.273 C 280.405 130.273,280.273 130.405,280.273 130.566 C 280.273 130.729,280.100 130.859,279.883 130.859 C 279.622 130.859,279.492 130.990,279.492 131.250 C 279.492 131.467,279.362 131.641,279.199 131.641 C 279.038 131.641,278.906 131.772,278.906 131.934 C 278.906 132.096,278.733 132.227,278.516 132.227 C 278.255 132.227,278.125 132.357,278.125 132.617 C 278.125 132.933,277.995 133.008,277.441 133.008 C 276.888 133.008,276.758 133.082,276.758 133.398 C 276.758 133.615,276.628 133.789,276.465 133.789 C 276.304 133.789,276.172 133.921,276.172 134.082 C 276.172 134.245,275.998 134.375,275.781 134.375 C 275.521 134.375,275.391 134.505,275.391 134.766 C 275.391 134.983,275.260 135.156,275.098 135.156 C 274.937 135.156,274.805 135.288,274.805 135.449 C 274.805 135.612,274.631 135.742,274.414 135.742 C 274.154 135.742,274.023 135.872,274.023 136.133 C 274.023 136.350,273.893 136.523,273.730 136.523 C 273.569 136.523,273.438 136.655,273.438 136.816 C 273.438 136.979,273.264 137.109,273.047 137.109 C 272.786 137.109,272.656 137.240,272.656 137.500 C 272.656 137.760,272.526 137.891,272.266 137.891 C 272.049 137.891,271.875 138.021,271.875 138.184 C 271.875 138.345,271.743 138.477,271.582 138.477 C 271.419 138.477,271.289 138.650,271.289 138.867 C 271.289 139.128,271.159 139.258,270.898 139.258 C 270.681 139.258,270.508 139.388,270.508 139.551 C 270.508 139.712,270.376 139.844,270.215 139.844 C 270.052 139.844,269.922 140.017,269.922 140.234 C 269.922 140.495,269.792 140.625,269.531 140.625 C 269.314 140.625,269.141 140.755,269.141 140.918 C 269.141 141.079,269.009 141.211,268.848 141.211 C 268.685 141.211,268.555 141.385,268.555 141.602 C 268.555 141.862,268.424 141.992,268.164 141.992 C 267.947 141.992,267.773 142.122,267.773 142.285 C 267.773 142.446,267.642 142.578,267.480 142.578 C 267.318 142.578,267.188 142.752,267.188 142.969 C 267.188 143.229,267.057 143.359,266.797 143.359 C 266.580 143.359,266.406 143.490,266.406 143.652 C 266.406 143.813,266.274 143.945,266.113 143.945 C 265.951 143.945,265.820 144.119,265.820 144.336 C 265.820 144.596,265.690 144.727,265.430 144.727 C 265.169 144.727,265.039 144.857,265.039 145.117 C 265.039 145.433,264.909 145.508,264.355 145.508 C 263.878 145.508,263.672 145.596,263.672 145.801 C 263.672 145.962,263.540 146.094,263.379 146.094 C 263.216 146.094,263.086 146.267,263.086 146.484 C 263.086 146.745,262.956 146.875,262.695 146.875 C 262.478 146.875,262.305 147.005,262.305 147.168 C 262.305 147.329,262.173 147.461,262.012 147.461 C 261.849 147.461,261.719 147.635,261.719 147.852 C 261.719 148.112,261.589 148.242,261.328 148.242 C 261.111 148.242,260.938 148.372,260.938 148.535 C 260.938 148.698,260.764 148.828,260.547 148.828 C 260.286 148.828,260.156 148.958,260.156 149.219 C 260.156 149.436,260.026 149.609,259.863 149.609 C 259.702 149.609,259.570 149.741,259.570 149.902 C 259.570 150.065,259.397 150.195,259.180 150.195 C 258.919 150.195,258.789 150.326,258.789 150.586 C 258.789 150.803,258.659 150.977,258.496 150.977 C 258.335 150.977,258.203 151.108,258.203 151.270 C 258.203 151.432,258.030 151.563,257.813 151.563 C 257.552 151.563,257.422 151.693,257.422 151.953 C 257.422 152.170,257.292 152.344,257.129 152.344 C 256.968 152.344,256.836 152.476,256.836 152.637 C 256.836 152.799,256.662 152.930,256.445 152.930 C 256.185 152.930,256.055 153.060,256.055 153.320 C 256.055 153.537,255.924 153.711,255.762 153.711 C 255.601 153.711,255.469 153.843,255.469 154.004 C 255.469 154.167,255.295 154.297,255.078 154.297 C 254.818 154.297,254.688 154.427,254.688 154.688 C 254.688 154.905,254.557 155.078,254.395 155.078 C 254.233 155.078,254.102 155.210,254.102 155.371 C 254.102 155.534,253.928 155.664,253.711 155.664 C 253.451 155.664,253.320 155.794,253.320 156.055 C 253.320 156.272,253.190 156.445,253.027 156.445 C 252.865 156.445,252.734 156.619,252.734 156.836 C 252.734 157.096,252.604 157.227,252.344 157.227 C 252.127 157.227,251.953 157.357,251.953 157.520 C 251.953 157.724,251.747 157.813,251.270 157.813 C 250.716 157.813,250.586 157.887,250.586 158.203 C 250.586 158.420,250.456 158.594,250.293 158.594 C 250.132 158.594,250.000 158.726,250.000 158.887 C 250.000 159.049,249.826 159.180,249.609 159.180 C 249.349 159.180,249.219 159.310,249.219 159.570 C 249.219 159.831,249.089 159.961,248.828 159.961 C 248.512 159.961,248.438 160.091,248.438 160.645 L 248.438 161.328 284.277 161.328 L 320.117 161.328 320.117 181.250 L 320.117 201.172 283.984 201.172 C 247.982 201.172,247.852 201.173,247.852 201.563 C 247.852 201.780,247.982 201.953,248.145 201.953 C 248.306 201.953,248.438 202.085,248.438 202.246 C 248.438 202.409,248.611 202.539,248.828 202.539 C 249.089 202.539,249.219 202.669,249.219 202.930 C 249.219 203.190,249.349 203.320,249.609 203.320 C 249.826 203.320,250.000 203.451,250.000 203.613 C 250.000 203.774,250.132 203.906,250.293 203.906 C 250.456 203.906,250.586 204.080,250.586 204.297 C 250.586 204.557,250.716 204.688,250.977 204.688 C 251.237 204.688,251.367 204.818,251.367 205.078 C 251.367 205.295,251.497 205.469,251.660 205.469 C 251.821 205.469,251.953 205.601,251.953 205.762 C 251.953 205.924,252.127 206.055,252.344 206.055 C 252.604 206.055,252.734 206.185,252.734 206.445 C 252.734 206.662,252.865 206.836,253.027 206.836 C 253.188 206.836,253.320 206.968,253.320 207.129 C 253.320 207.292,253.494 207.422,253.711 207.422 C 253.971 207.422,254.102 207.552,254.102 207.813 C 254.102 208.030,254.232 208.203,254.395 208.203 C 254.556 208.203,254.688 208.335,254.688 208.496 C 254.688 208.659,254.861 208.789,255.078 208.789 C 255.339 208.789,255.469 208.919,255.469 209.180 C 255.469 209.397,255.599 209.570,255.762 209.570 C 255.923 209.570,256.055 209.702,256.055 209.863 C 256.055 210.026,256.228 210.156,256.445 210.156 C 256.706 210.156,256.836 210.286,256.836 210.547 C 256.836 210.764,256.966 210.938,257.129 210.938 C 257.290 210.938,257.422 211.069,257.422 211.230 C 257.422 211.393,257.595 211.523,257.813 211.523 C 258.073 211.523,258.203 211.654,258.203 211.914 C 258.203 212.131,258.333 212.305,258.496 212.305 C 258.657 212.305,258.789 212.437,258.789 212.598 C 258.789 212.760,258.963 212.891,259.180 212.891 C 259.440 212.891,259.570 213.021,259.570 213.281 C 259.570 213.498,259.701 213.672,259.863 213.672 C 260.024 213.672,260.156 213.804,260.156 213.965 C 260.156 214.176,260.373 214.258,260.938 214.258 C 261.589 214.258,261.719 214.323,261.719 214.648 C 261.719 214.865,261.849 215.039,262.012 215.039 C 262.173 215.039,262.305 215.171,262.305 215.332 C 262.305 215.495,262.478 215.625,262.695 215.625 C 262.956 215.625,263.086 215.755,263.086 216.016 C 263.086 216.233,263.216 216.406,263.379 216.406 C 263.542 216.406,263.672 216.580,263.672 216.797 C 263.672 217.057,263.802 217.188,264.063 217.188 C 264.280 217.188,264.453 217.318,264.453 217.480 C 264.453 217.642,264.585 217.773,264.746 217.773 C 264.909 217.773,265.039 217.947,265.039 218.164 C 265.039 218.424,265.169 218.555,265.430 218.555 C 265.647 218.555,265.820 218.685,265.820 218.848 C 265.820 219.009,265.952 219.141,266.113 219.141 C 266.276 219.141,266.406 219.314,266.406 219.531 C 266.406 219.792,266.536 219.922,266.797 219.922 C 267.014 219.922,267.188 220.052,267.188 220.215 C 267.188 220.376,267.319 220.508,267.480 220.508 C 267.643 220.508,267.773 220.681,267.773 220.898 C 267.773 221.159,267.904 221.289,268.164 221.289 C 268.381 221.289,268.555 221.419,268.555 221.582 C 268.555 221.743,268.687 221.875,268.848 221.875 C 269.010 221.875,269.141 222.049,269.141 222.266 C 269.141 222.526,269.271 222.656,269.531 222.656 C 269.748 222.656,269.922 222.786,269.922 222.949 C 269.922 223.110,270.054 223.242,270.215 223.242 C 270.378 223.242,270.508 223.416,270.508 223.633 C 270.508 223.893,270.638 224.023,270.898 224.023 C 271.115 224.023,271.289 224.154,271.289 224.316 C 271.289 224.478,271.421 224.609,271.582 224.609 C 271.745 224.609,271.875 224.783,271.875 225.000 C 271.875 225.260,272.005 225.391,272.266 225.391 C 272.483 225.391,272.656 225.521,272.656 225.684 C 272.656 225.846,272.830 225.977,273.047 225.977 C 273.307 225.977,273.438 226.107,273.438 226.367 C 273.438 226.584,273.568 226.758,273.730 226.758 C 273.892 226.758,274.023 226.890,274.023 227.051 C 274.023 227.214,274.197 227.344,274.414 227.344 C 274.674 227.344,274.805 227.474,274.805 227.734 C 274.805 227.951,274.935 228.125,275.098 228.125 C 275.260 228.125,275.391 228.299,275.391 228.516 C 275.391 228.776,275.521 228.906,275.781 228.906 C 275.998 228.906,276.172 229.036,276.172 229.199 C 276.172 229.360,276.304 229.492,276.465 229.492 C 276.628 229.492,276.758 229.666,276.758 229.883 C 276.758 230.143,276.888 230.273,277.148 230.273 C 277.365 230.273,277.539 230.404,277.539 230.566 C 277.539 230.728,277.671 230.859,277.832 230.859 C 277.995 230.859,278.125 231.033,278.125 231.250 C 278.125 231.510,278.255 231.641,278.516 231.641 C 278.733 231.641,278.906 231.771,278.906 231.934 C 278.906 232.095,279.038 232.227,279.199 232.227 C 279.362 232.227,279.492 232.400,279.492 232.617 C 279.492 232.878,279.622 233.008,279.883 233.008 C 280.100 233.008,280.273 233.138,280.273 233.301 C 280.273 233.462,280.405 233.594,280.566 233.594 C 280.729 233.594,280.859 233.767,280.859 233.984 C 280.859 234.245,280.990 234.375,281.250 234.375 C 281.467 234.375,281.641 234.505,281.641 234.668 C 281.641 234.829,281.772 234.961,281.934 234.961 C 282.096 234.961,282.227 235.135,282.227 235.352 C 282.227 235.668,282.357 235.742,282.910 235.742 C 283.388 235.742,283.594 235.831,283.594 236.035 C 283.594 236.198,283.767 236.328,283.984 236.328 C 284.245 236.328,284.375 236.458,284.375 236.719 C 284.375 236.979,284.505 237.109,284.766 237.109 C 284.983 237.109,285.156 237.240,285.156 237.402 C 285.156 237.563,285.288 237.695,285.449 237.695 C 285.612 237.695,285.742 237.869,285.742 238.086 C 285.742 238.346,285.872 238.477,286.133 238.477 C 286.350 238.477,286.523 238.607,286.523 238.770 C 286.523 238.931,286.655 239.063,286.816 239.063 C 286.979 239.063,287.109 239.236,287.109 239.453 C 287.109 239.714,287.240 239.844,287.500 239.844 C 287.760 239.844,287.891 239.974,287.891 240.234 C 287.891 240.451,288.021 240.625,288.184 240.625 C 288.345 240.625,288.477 240.757,288.477 240.918 C 288.477 241.081,288.650 241.211,288.867 241.211 C 289.128 241.211,289.258 241.341,289.258 241.602 C 289.258 241.819,289.388 241.992,289.551 241.992 C 289.712 241.992,289.844 242.124,289.844 242.285 C 289.844 242.448,290.017 242.578,290.234 242.578 C 290.495 242.578,290.625 242.708,290.625 242.969 C 290.625 243.186,290.755 243.359,290.918 243.359 C 291.079 243.359,291.211 243.491,291.211 243.652 C 291.211 243.815,291.385 243.945,291.602 243.945 C 291.862 243.945,291.992 244.076,291.992 244.336 C 291.992 244.553,292.122 244.727,292.285 244.727 C 292.446 244.727,292.578 244.858,292.578 245.020 C 292.578 245.182,292.752 245.313,292.969 245.313 C 293.229 245.313,293.359 245.443,293.359 245.703 C 293.359 245.920,293.490 246.094,293.652 246.094 C 293.813 246.094,293.945 246.226,293.945 246.387 C 293.945 246.549,294.119 246.680,294.336 246.680 C 294.596 246.680,294.727 246.810,294.727 247.070 C 294.727 247.287,294.857 247.461,295.020 247.461 C 295.181 247.461,295.313 247.593,295.313 247.754 C 295.313 247.917,295.486 248.047,295.703 248.047 C 295.964 248.047,296.094 248.177,296.094 248.438 C 296.094 248.698,296.224 248.828,296.484 248.828 C 296.701 248.828,296.875 248.958,296.875 249.121 C 296.875 249.282,297.007 249.414,297.168 249.414 C 297.331 249.414,297.461 249.588,297.461 249.805 C 297.461 250.065,297.591 250.195,297.852 250.195 C 298.069 250.195,298.242 250.326,298.242 250.488 C 298.242 250.649,298.374 250.781,298.535 250.781 C 298.747 250.781,298.828 250.998,298.828 251.563 C 298.828 252.127,298.747 252.344,298.535 252.344 C 298.374 252.344,298.242 252.476,298.242 252.637 C 298.242 252.799,298.069 252.930,297.852 252.930 C 297.591 252.930,297.461 253.060,297.461 253.320 C 297.461 253.537,297.331 253.711,297.168 253.711 C 297.007 253.711,296.875 253.843,296.875 254.004 C 296.875 254.167,296.701 254.297,296.484 254.297 C 296.224 254.297,296.094 254.427,296.094 254.688 C 296.094 254.948,295.964 255.078,295.703 255.078 C 295.486 255.078,295.313 255.208,295.313 255.371 C 295.313 255.532,295.181 255.664,295.020 255.664 C 294.857 255.664,294.727 255.838,294.727 256.055 C 294.727 256.315,294.596 256.445,294.336 256.445 C 294.119 256.445,293.945 256.576,293.945 256.738 C 293.945 256.899,293.813 257.031,293.652 257.031 C 293.490 257.031,293.359 257.205,293.359 257.422 C 293.359 257.682,293.229 257.813,292.969 257.813 C 292.752 257.813,292.578 257.943,292.578 258.105 C 292.578 258.267,292.446 258.398,292.285 258.398 C 292.122 258.398,291.992 258.572,291.992 258.789 C 291.992 259.049,291.862 259.180,291.602 259.180 C 291.385 259.180,291.211 259.310,291.211 259.473 C 291.211 259.634,291.079 259.766,290.918 259.766 C 290.755 259.766,290.625 259.939,290.625 260.156 C 290.625 260.417,290.495 260.547,290.234 260.547 C 290.017 260.547,289.844 260.677,289.844 260.840 C 289.844 261.001,289.712 261.133,289.551 261.133 C 289.388 261.133,289.258 261.306,289.258 261.523 C 289.258 261.784,289.128 261.914,288.867 261.914 C 288.650 261.914,288.477 262.044,288.477 262.207 C 288.477 262.368,288.345 262.500,288.184 262.500 C 288.021 262.500,287.891 262.674,287.891 262.891 C 287.891 263.207,287.760 263.281,287.207 263.281 C 286.654 263.281,286.523 263.356,286.523 263.672 C 286.523 263.932,286.393 264.063,286.133 264.063 C 285.916 264.063,285.742 264.193,285.742 264.355 C 285.742 264.517,285.610 264.648,285.449 264.648 C 285.286 264.648,285.156 264.822,285.156 265.039 C 285.156 265.299,285.026 265.430,284.766 265.430 C 284.549 265.430,284.375 265.560,284.375 265.723 C 284.375 265.885,284.201 266.016,283.984 266.016 C 283.724 266.016,283.594 266.146,283.594 266.406 C 283.594 266.623,283.464 266.797,283.301 266.797 C 283.140 266.797,283.008 266.929,283.008 267.090 C 283.008 267.253,282.834 267.383,282.617 267.383 C 282.357 267.383,282.227 267.513,282.227 267.773 C 282.227 267.990,282.096 268.164,281.934 268.164 C 281.772 268.164,281.641 268.296,281.641 268.457 C 281.641 268.620,281.467 268.750,281.250 268.750 C 280.990 268.750,280.859 268.880,280.859 269.141 C 280.859 269.358,280.729 269.531,280.566 269.531 C 280.405 269.531,280.273 269.663,280.273 269.824 C 280.273 269.987,280.100 270.117,279.883 270.117 C 279.622 270.117,279.492 270.247,279.492 270.508 C 279.492 270.725,279.362 270.898,279.199 270.898 C 279.038 270.898,278.906 271.030,278.906 271.191 C 278.906 271.354,278.733 271.484,278.516 271.484 C 278.255 271.484,278.125 271.615,278.125 271.875 C 278.125 272.092,277.995 272.266,277.832 272.266 C 277.671 272.266,277.539 272.397,277.539 272.559 C 277.539 272.721,277.365 272.852,277.148 272.852 C 276.888 272.852,276.758 272.982,276.758 273.242 C 276.758 273.459,276.628 273.633,276.465 273.633 C 276.304 273.633,276.172 273.765,276.172 273.926 C 276.172 274.089,275.998 274.219,275.781 274.219 C 275.521 274.219,275.391 274.349,275.391 274.609 C 275.391 274.826,275.260 275.000,275.098 275.000 C 274.935 275.000,274.805 275.174,274.805 275.391 C 274.805 275.651,274.674 275.781,274.414 275.781 C 274.197 275.781,274.023 275.911,274.023 276.074 C 274.023 276.235,273.892 276.367,273.730 276.367 C 273.568 276.367,273.438 276.541,273.438 276.758 C 273.438 277.018,273.307 277.148,273.047 277.148 C 272.830 277.148,272.656 277.279,272.656 277.441 C 272.656 277.604,272.483 277.734,272.266 277.734 C 272.005 277.734,271.875 277.865,271.875 278.125 C 271.875 278.342,271.745 278.516,271.582 278.516 C 271.421 278.516,271.289 278.647,271.289 278.809 C 271.289 278.971,271.115 279.102,270.898 279.102 C 270.681 279.102,270.508 278.971,270.508 278.809 C 270.508 278.647,270.376 278.516,270.215 278.516 C 270.052 278.516,269.922 278.342,269.922 278.125 C 269.922 277.865,269.792 277.734,269.531 277.734 C 269.314 277.734,269.141 277.604,269.141 277.441 C 269.141 277.280,269.009 277.148,268.848 277.148 C 268.685 277.148,268.555 276.975,268.555 276.758 C 268.555 276.497,268.424 276.367,268.164 276.367 C 267.947 276.367,267.773 276.237,267.773 276.074 C 267.773 275.913,267.642 275.781,267.480 275.781 C 267.318 275.781,267.188 275.608,267.188 275.391 C 267.188 275.130,267.057 275.000,266.797 275.000 C 266.536 275.000,266.406 274.870,266.406 274.609 C 266.406 274.392,266.276 274.219,266.113 274.219 C 265.952 274.219,265.820 274.087,265.820 273.926 C 265.820 273.763,265.647 273.633,265.430 273.633 C 265.169 273.633,265.039 273.503,265.039 273.242 C 265.039 273.025,264.909 272.852,264.746 272.852 C 264.585 272.852,264.453 272.720,264.453 272.559 C 264.453 272.396,264.280 272.266,264.063 272.266 C 263.802 272.266,263.672 272.135,263.672 271.875 C 263.672 271.658,263.542 271.484,263.379 271.484 C 263.218 271.484,263.086 271.353,263.086 271.191 C 263.086 271.029,262.912 270.898,262.695 270.898 C 262.435 270.898,262.305 270.768,262.305 270.508 C 262.305 270.291,262.174 270.117,262.012 270.117 C 261.851 270.117,261.719 269.985,261.719 269.824 C 261.719 269.661,261.545 269.531,261.328 269.531 C 261.068 269.531,260.938 269.401,260.938 269.141 C 260.938 268.880,260.807 268.750,260.547 268.750 C 260.330 268.750,260.156 268.620,260.156 268.457 C 260.156 268.296,260.024 268.164,259.863 268.164 C 259.701 268.164,259.570 267.990,259.570 267.773 C 259.570 267.513,259.440 267.383,259.180 267.383 C 258.963 267.383,258.789 267.253,258.789 267.090 C 258.789 266.929,258.657 266.797,258.496 266.797 C 258.333 266.797,258.203 266.623,258.203 266.406 C 258.203 266.146,258.073 266.016,257.813 266.016 C 257.595 266.016,257.422 265.885,257.422 265.723 C 257.422 265.562,257.290 265.430,257.129 265.430 C 256.966 265.430,256.836 265.256,256.836 265.039 C 256.836 264.779,256.706 264.648,256.445 264.648 C 256.228 264.648,256.055 264.518,256.055 264.355 C 256.055 264.194,255.923 264.063,255.762 264.063 C 255.599 264.063,255.469 263.889,255.469 263.672 C 255.469 263.411,255.339 263.281,255.078 263.281 C 254.818 263.281,254.688 263.151,254.688 262.891 C 254.688 262.674,254.557 262.500,254.395 262.500 C 254.233 262.500,254.102 262.368,254.102 262.207 C 254.102 262.044,253.928 261.914,253.711 261.914 C 253.451 261.914,253.320 261.784,253.320 261.523 C 253.320 261.306,253.190 261.133,253.027 261.133 C 252.866 261.133,252.734 261.001,252.734 260.840 C 252.734 260.677,252.561 260.547,252.344 260.547 C 252.083 260.547,251.953 260.417,251.953 260.156 C 251.953 259.939,251.823 259.766,251.660 259.766 C 251.499 259.766,251.367 259.634,251.367 259.473 C 251.367 259.310,251.194 259.180,250.977 259.180 C 250.716 259.180,250.586 259.049,250.586 258.789 C 250.586 258.572,250.456 258.398,250.293 258.398 C 250.132 258.398,250.000 258.267,250.000 258.105 C 250.000 257.943,249.826 257.813,249.609 257.813 C 249.349 257.813,249.219 257.682,249.219 257.422 C 249.219 257.161,249.089 257.031,248.828 257.031 C 248.611 257.031,248.438 256.901,248.438 256.738 C 248.438 256.577,248.306 256.445,248.145 256.445 C 247.982 256.445,247.852 256.272,247.852 256.055 C 247.852 255.794,247.721 255.664,247.461 255.664 C 247.244 255.664,247.070 255.534,247.070 255.371 C 247.070 255.210,246.938 255.078,246.777 255.078 C 246.615 255.078,246.484 254.905,246.484 254.688 C 246.484 254.427,246.354 254.297,246.094 254.297 C 245.877 254.297,245.703 254.167,245.703 254.004 C 245.703 253.843,245.571 253.711,245.410 253.711 C 245.247 253.711,245.117 253.537,245.117 253.320 C 245.117 253.060,244.987 252.930,244.727 252.930 C 244.510 252.930,244.336 252.799,244.336 252.637 C 244.336 252.476,244.204 252.344,244.043 252.344 C 243.880 252.344,243.750 252.170,243.750 251.953 C 243.750 251.693,243.620 251.563,243.359 251.563 C 243.099 251.563,242.969 251.432,242.969 251.172 C 242.969 250.955,242.839 250.781,242.676 250.781 C 242.515 250.781,242.383 250.649,242.383 250.488 C 242.383 250.326,242.209 250.195,241.992 250.195 C 241.732 250.195,241.602 250.065,241.602 249.805 C 241.602 249.588,241.471 249.414,241.309 249.414 C 241.147 249.414,241.016 249.282,241.016 249.121 C 241.016 248.958,240.842 248.828,240.625 248.828 C 240.365 248.828,240.234 248.698,240.234 248.438 C 240.234 248.220,240.104 248.047,239.941 248.047 C 239.780 248.047,239.648 247.915,239.648 247.754 C 239.648 247.591,239.475 247.461,239.258 247.461 C 238.997 247.461,238.867 247.331,238.867 247.070 C 238.867 246.853,238.737 246.680,238.574 246.680 C 238.413 246.680,238.281 246.548,238.281 246.387 C 238.281 246.224,238.108 246.094,237.891 246.094 C 237.630 246.094,237.500 245.964,237.500 245.703 C 237.500 245.443,237.370 245.313,237.109 245.313 C 236.892 245.313,236.719 245.182,236.719 245.020 C 236.719 244.858,236.587 244.727,236.426 244.727 C 236.263 244.727,236.133 244.553,236.133 244.336 C 236.133 244.076,236.003 243.945,235.742 243.945 C 235.525 243.945,235.352 243.815,235.352 243.652 C 235.352 243.491,235.220 243.359,235.059 243.359 C 234.896 243.359,234.766 243.186,234.766 242.969 C 234.766 242.708,234.635 242.578,234.375 242.578 C 234.158 242.578,233.984 242.448,233.984 242.285 C 233.984 242.124,233.853 241.992,233.691 241.992 C 233.529 241.992,233.398 241.819,233.398 241.602 C 233.398 241.341,233.268 241.211,233.008 241.211 C 232.791 241.211,232.617 241.081,232.617 240.918 C 232.617 240.757,232.485 240.625,232.324 240.625 C 232.161 240.625,232.031 240.451,232.031 240.234 C 232.031 239.974,231.901 239.844,231.641 239.844 C 231.380 239.844,231.250 239.714,231.250 239.453 C 231.250 239.236,231.120 239.063,230.957 239.063 C 230.796 239.063,230.664 238.931,230.664 238.770 C 230.664 238.607,230.490 238.477,230.273 238.477 C 230.013 238.477,229.883 238.346,229.883 238.086 C 229.883 237.869,229.753 237.695,229.590 237.695 C 229.429 237.695,229.297 237.563,229.297 237.402 C 229.297 237.240,229.123 237.109,228.906 237.109 C 228.646 237.109,228.516 236.979,228.516 236.719 C 228.516 236.502,228.385 236.328,228.223 236.328 C 228.062 236.328,227.930 236.196,227.930 236.035 C 227.930 235.872,227.756 235.742,227.539 235.742 C 227.279 235.742,227.148 235.612,227.148 235.352 C 227.148 235.135,227.018 234.961,226.855 234.961 C 226.694 234.961,226.563 234.829,226.563 234.668 C 226.563 234.505,226.389 234.375,226.172 234.375 C 225.911 234.375,225.781 234.245,225.781 233.984 C 225.781 233.724,225.651 233.594,225.391 233.594 C 225.174 233.594,225.000 233.464,225.000 233.301 C 225.000 233.140,224.868 233.008,224.707 233.008 C 224.544 233.008,224.414 232.834,224.414 232.617 C 224.414 232.357,224.284 232.227,224.023 232.227 C 223.806 232.227,223.633 232.096,223.633 231.934 C 223.633 231.772,223.501 231.641,223.340 231.641 C 223.177 231.641,223.047 231.467,223.047 231.250 C 223.047 230.990,222.917 230.859,222.656 230.859 C 222.439 230.859,222.266 230.729,222.266 230.566 C 222.266 230.405,222.134 230.273,221.973 230.273 C 221.810 230.273,221.680 230.100,221.680 229.883 C 221.680 229.622,221.549 229.492,221.289 229.492 C 221.072 229.492,220.898 229.362,220.898 229.199 C 220.898 229.038,220.767 228.906,220.605 228.906 C 220.443 228.906,220.313 228.733,220.313 228.516 C 220.313 228.255,220.182 228.125,219.922 228.125 C 219.661 228.125,219.531 227.995,219.531 227.734 C 219.531 227.517,219.401 227.344,219.238 227.344 C 219.077 227.344,218.945 227.212,218.945 227.051 C 218.945 226.888,218.772 226.758,218.555 226.758 C 218.294 226.758,218.164 226.628,218.164 226.367 C 218.164 226.150,218.034 225.977,217.871 225.977 C 217.710 225.977,217.578 225.845,217.578 225.684 C 217.578 225.521,217.405 225.391,217.188 225.391 C 216.927 225.391,216.797 225.260,216.797 225.000 C 216.797 224.783,216.667 224.609,216.504 224.609 C 216.343 224.609,216.211 224.478,216.211 224.316 C 216.211 224.154,216.037 224.023,215.820 224.023 C 215.560 224.023,215.430 223.893,215.430 223.633 C 215.430 223.416,215.299 223.242,215.137 223.242 C 214.976 223.242,214.844 223.110,214.844 222.949 C 214.844 222.786,214.670 222.656,214.453 222.656 C 214.193 222.656,214.063 222.526,214.063 222.266 C 214.063 222.005,213.932 221.875,213.672 221.875 C 213.455 221.875,213.281 221.745,213.281 221.582 C 213.281 221.421,213.149 221.289,212.988 221.289 C 212.826 221.289,212.695 221.115,212.695 220.898 C 212.695 220.638,212.565 220.508,212.305 220.508 C 212.088 220.508,211.914 220.378,211.914 220.215 C 211.914 220.054,211.782 219.922,211.621 219.922 C 211.458 219.922,211.328 219.748,211.328 219.531 C 211.328 219.271,211.198 219.141,210.938 219.141 C 210.720 219.141,210.547 219.010,210.547 218.848 C 210.547 218.687,210.415 218.555,210.254 218.555 C 210.091 218.555,209.961 218.381,209.961 218.164 C 209.961 217.904,209.831 217.773,209.570 217.773 C 209.353 217.773,209.180 217.643,209.180 217.480 C 209.180 217.319,209.048 217.188,208.887 217.188 C 208.724 217.188,208.594 217.014,208.594 216.797 C 208.594 216.536,208.464 216.406,208.203 216.406 C 207.943 216.406,207.813 216.276,207.813 216.016 C 207.813 215.799,207.682 215.625,207.520 215.625 C 207.358 215.625,207.227 215.493,207.227 215.332 C 207.227 215.169,207.053 215.039,206.836 215.039 C 206.576 215.039,206.445 214.909,206.445 214.648 C 206.445 214.431,206.315 214.258,206.152 214.258 C 205.991 214.258,205.859 214.126,205.859 213.965 C 205.859 213.802,205.686 213.672,205.469 213.672 C 205.208 213.672,205.078 213.542,205.078 213.281 C 205.078 213.064,204.948 212.891,204.785 212.891 C 204.624 212.891,204.492 212.759,204.492 212.598 C 204.492 212.435,204.319 212.305,204.102 212.305 C 203.841 212.305,203.711 212.174,203.711 211.914 C 203.711 211.697,203.581 211.523,203.418 211.523 C 203.257 211.523,203.125 211.392,203.125 211.230 C 203.125 211.068,202.951 210.938,202.734 210.938 C 202.474 210.938,202.344 210.807,202.344 210.547 C 202.344 210.330,202.214 210.156,202.051 210.156 C 201.890 210.156,201.758 210.024,201.758 209.863 C 201.758 209.701,201.584 209.570,201.367 209.570 C 201.107 209.570,200.977 209.440,200.977 209.180 C 200.977 208.919,200.846 208.789,200.586 208.789 C 200.326 208.789,200.195 208.919,200.195 209.180 C 200.195 209.397,200.065 209.570,199.902 209.570 C 199.741 209.570,199.609 209.702,199.609 209.863 C 199.609 210.026,199.436 210.156,199.219 210.156 C 198.958 210.156,198.828 210.286,198.828 210.547 C 198.828 210.764,198.698 210.938,198.535 210.938 C 198.374 210.938,198.242 211.069,198.242 211.230 C 198.242 211.393,198.069 211.523,197.852 211.523 C 197.591 211.523,197.461 211.654,197.461 211.914 C 197.461 212.131,197.331 212.305,197.168 212.305 C 197.007 212.305,196.875 212.437,196.875 212.598 C 196.875 212.760,196.701 212.891,196.484 212.891 C 196.224 212.891,196.094 213.021,196.094 213.281 C 196.094 213.498,195.964 213.672,195.801 213.672 C 195.640 213.672,195.508 213.804,195.508 213.965 C 195.508 214.128,195.334 214.258,195.117 214.258 C 194.857 214.258,194.727 214.388,194.727 214.648 C 194.727 214.865,194.596 215.039,194.434 215.039 C 194.272 215.039,194.141 215.171,194.141 215.332 C 194.141 215.495,193.967 215.625,193.750 215.625 C 193.490 215.625,193.359 215.755,193.359 216.016 C 193.359 216.233,193.229 216.406,193.066 216.406 C 192.904 216.406,192.773 216.580,192.773 216.797 C 192.773 217.057,192.643 217.188,192.383 217.188 C 192.166 217.188,191.992 217.318,191.992 217.480 C 191.992 217.642,191.860 217.773,191.699 217.773 C 191.536 217.773,191.406 217.947,191.406 218.164 C 191.406 218.424,191.276 218.555,191.016 218.555 C 190.799 218.555,190.625 218.685,190.625 218.848 C 190.625 219.009,190.493 219.141,190.332 219.141 C 190.169 219.141,190.039 219.314,190.039 219.531 C 190.039 219.792,189.909 219.922,189.648 219.922 C 189.431 219.922,189.258 220.052,189.258 220.215 C 189.258 220.378,189.084 220.508,188.867 220.508 C 188.607 220.508,188.477 220.638,188.477 220.898 C 188.477 221.115,188.346 221.289,188.184 221.289 C 188.022 221.289,187.891 221.421,187.891 221.582 C 187.891 221.745,187.717 221.875,187.500 221.875 C 187.240 221.875,187.109 222.005,187.109 222.266 C 187.109 222.483,186.979 222.656,186.816 222.656 C 186.655 222.656,186.523 222.788,186.523 222.949 C 186.523 223.112,186.350 223.242,186.133 223.242 C 185.872 223.242,185.742 223.372,185.742 223.633 C 185.742 223.850,185.612 224.023,185.449 224.023 C 185.288 224.023,185.156 224.155,185.156 224.316 C 185.156 224.479,184.983 224.609,184.766 224.609 C 184.505 224.609,184.375 224.740,184.375 225.000 C 184.375 225.217,184.245 225.391,184.082 225.391 C 183.921 225.391,183.789 225.522,183.789 225.684 C 183.789 225.846,183.615 225.977,183.398 225.977 C 183.138 225.977,183.008 226.107,183.008 226.367 C 183.008 226.584,182.878 226.758,182.715 226.758 C 182.554 226.758,182.422 226.890,182.422 227.051 C 182.422 227.214,182.248 227.344,182.031 227.344 C 181.771 227.344,181.641 227.474,181.641 227.734 C 181.641 227.951,181.510 228.125,181.348 228.125 C 181.185 228.125,181.055 228.299,181.055 228.516 C 181.055 228.776,180.924 228.906,180.664 228.906 C 180.447 228.906,180.273 229.036,180.273 229.199 C 180.273 229.360,180.142 229.492,179.980 229.492 C 179.818 229.492,179.688 229.666,179.688 229.883 C 179.688 230.143,179.557 230.273,179.297 230.273 C 179.080 230.273,178.906 230.404,178.906 230.566 C 178.906 230.728,178.774 230.859,178.613 230.859 C 178.451 230.859,178.320 231.033,178.320 231.250 C 178.320 231.510,178.190 231.641,177.930 231.641 C 177.713 231.641,177.539 231.771,177.539 231.934 C 177.539 232.096,177.365 232.227,177.148 232.227 C 176.888 232.227,176.758 232.357,176.758 232.617 C 176.758 232.834,176.628 233.008,176.465 233.008 C 176.304 233.008,176.172 233.140,176.172 233.301 C 176.172 233.464,175.998 233.594,175.781 233.594 C 175.521 233.594,175.391 233.724,175.391 233.984 C 175.391 234.201,175.260 234.375,175.098 234.375 C 174.937 234.375,174.805 234.507,174.805 234.668 C 174.805 234.831,174.631 234.961,174.414 234.961 C 174.154 234.961,174.023 235.091,174.023 235.352 C 174.023 235.569,173.893 235.742,173.730 235.742 C 173.569 235.742,173.438 235.874,173.438 236.035 C 173.438 236.198,173.264 236.328,173.047 236.328 C 172.786 236.328,172.656 236.458,172.656 236.719 C 172.656 236.936,172.526 237.109,172.363 237.109 C 172.202 237.109,172.070 237.241,172.070 237.402 C 172.070 237.565,171.897 237.695,171.680 237.695 C 171.419 237.695,171.289 237.826,171.289 238.086 C 171.289 238.303,171.159 238.477,170.996 238.477 C 170.835 238.477,170.703 238.608,170.703 238.770 C 170.703 238.932,170.530 239.063,170.313 239.063 C 170.052 239.063,169.922 239.193,169.922 239.453 C 169.922 239.670,169.792 239.844,169.629 239.844 C 169.466 239.844,169.336 240.017,169.336 240.234 C 169.336 240.495,169.206 240.625,168.945 240.625 C 168.728 240.625,168.555 240.755,168.555 240.918 C 168.555 241.079,168.423 241.211,168.262 241.211 C 168.099 241.211,167.969 241.385,167.969 241.602 C 167.969 241.862,167.839 241.992,167.578 241.992 C 167.361 241.992,167.188 242.122,167.188 242.285 C 167.188 242.446,167.056 242.578,166.895 242.578 C 166.732 242.578,166.602 242.752,166.602 242.969 C 166.602 243.229,166.471 243.359,166.211 243.359 C 165.994 243.359,165.820 243.490,165.820 243.652 C 165.820 243.815,165.647 243.945,165.430 243.945 C 165.169 243.945,165.039 244.076,165.039 244.336 C 165.039 244.553,164.909 244.727,164.746 244.727 C 164.585 244.727,164.453 244.858,164.453 245.020 C 164.453 245.182,164.280 245.313,164.063 245.313 C 163.802 245.313,163.672 245.443,163.672 245.703 C 163.672 245.920,163.542 246.094,163.379 246.094 C 163.218 246.094,163.086 246.226,163.086 246.387 C 163.086 246.549,162.912 246.680,162.695 246.680 C 162.435 246.680,162.305 246.810,162.305 247.070 C 162.305 247.287,162.174 247.461,162.012 247.461 C 161.851 247.461,161.719 247.593,161.719 247.754 C 161.719 247.917,161.545 248.047,161.328 248.047 C 161.068 248.047,160.938 248.177,160.938 248.438 C 160.938 248.655,160.807 248.828,160.645 248.828 C 160.483 248.828,160.352 248.960,160.352 249.121 C 160.352 249.284,160.178 249.414,159.961 249.414 C 159.701 249.414,159.570 249.544,159.570 249.805 C 159.570 250.022,159.440 250.195,159.277 250.195 C 159.116 250.195,158.984 250.327,158.984 250.488 C 158.984 250.651,158.811 250.781,158.594 250.781 C 158.333 250.781,158.203 250.911,158.203 251.172 C 158.203 251.389,158.073 251.563,157.910 251.563 C 157.747 251.563,157.617 251.736,157.617 251.953 C 157.617 252.214,157.487 252.344,157.227 252.344 C 157.010 252.344,156.836 252.474,156.836 252.637 C 156.836 252.798,156.704 252.930,156.543 252.930 C 156.380 252.930,156.250 253.103,156.250 253.320 C 156.250 253.581,156.120 253.711,155.859 253.711 C 155.642 253.711,155.469 253.841,155.469 254.004 C 155.469 254.165,155.337 254.297,155.176 254.297 C 155.013 254.297,154.883 254.470,154.883 254.688 C 154.883 254.948,154.753 255.078,154.492 255.078 C 154.275 255.078,154.102 255.208,154.102 255.371 C 154.102 255.534,153.928 255.664,153.711 255.664 C 153.451 255.664,153.320 255.794,153.320 256.055 C 153.320 256.272,153.190 256.445,153.027 256.445 C 152.866 256.445,152.734 256.577,152.734 256.738 C 152.734 256.901,152.561 257.031,152.344 257.031 C 152.083 257.031,151.953 257.161,151.953 257.422 C 151.953 257.639,151.823 257.813,151.660 257.813 C 151.499 257.813,151.367 257.944,151.367 258.105 C 151.367 258.268,151.194 258.398,150.977 258.398 C 150.716 258.398,150.586 258.529,150.586 258.789 C 150.586 259.006,150.456 259.180,150.293 259.180 C 150.132 259.180,150.000 259.312,150.000 259.473 C 150.000 259.635,149.826 259.766,149.609 259.766 C 149.349 259.766,149.219 259.896,149.219 260.156 C 149.219 260.373,149.089 260.547,148.926 260.547 C 148.765 260.547,148.633 260.679,148.633 260.840 C 148.633 261.003,148.459 261.133,148.242 261.133 C 147.982 261.133,147.852 261.263,147.852 261.523 C 147.852 261.740,147.721 261.914,147.559 261.914 C 147.397 261.914,147.266 262.046,147.266 262.207 C 147.266 262.370,147.092 262.500,146.875 262.500 C 146.615 262.500,146.484 262.630,146.484 262.891 C 146.484 263.108,146.354 263.281,146.191 263.281 C 146.029 263.281,145.898 263.455,145.898 263.672 C 145.898 263.932,145.768 264.063,145.508 264.063 C 145.291 264.063,145.117 264.193,145.117 264.355 C 145.117 264.517,144.985 264.648,144.824 264.648 C 144.661 264.648,144.531 264.822,144.531 265.039 C 144.531 265.299,144.401 265.430,144.141 265.430 C 143.924 265.430,143.750 265.560,143.750 265.723 C 143.750 265.884,143.618 266.016,143.457 266.016 C 143.294 266.016,143.164 266.189,143.164 266.406 C 143.164 266.667,143.034 266.797,142.773 266.797 C 142.556 266.797,142.383 266.927,142.383 267.090 C 142.383 267.253,142.209 267.383,141.992 267.383 C 141.732 267.383,141.602 267.513,141.602 267.773 C 141.602 267.990,141.471 268.164,141.309 268.164 C 141.147 268.164,141.016 268.296,141.016 268.457 C 141.016 268.620,140.842 268.750,140.625 268.750 C 140.365 268.750,140.234 268.880,140.234 269.141 C 140.234 269.358,140.104 269.531,139.941 269.531 C 139.780 269.531,139.648 269.663,139.648 269.824 C 139.648 269.987,139.475 270.117,139.258 270.117 C 138.997 270.117,138.867 270.247,138.867 270.508 C 138.867 270.725,138.737 270.898,138.574 270.898 C 138.413 270.898,138.281 271.030,138.281 271.191 C 138.281 271.354,138.108 271.484,137.891 271.484 C 137.630 271.484,137.500 271.615,137.500 271.875 C 137.500 272.092,137.370 272.266,137.207 272.266 C 137.046 272.266,136.914 272.397,136.914 272.559 C 136.914 272.721,136.740 272.852,136.523 272.852 C 136.263 272.852,136.133 272.982,136.133 273.242 C 136.133 273.459,136.003 273.633,135.840 273.633 C 135.679 273.633,135.547 273.765,135.547 273.926 C 135.547 274.089,135.373 274.219,135.156 274.219 C 134.896 274.219,134.766 274.349,134.766 274.609 C 134.766 274.826,134.635 275.000,134.473 275.000 C 134.310 275.000,134.180 275.174,134.180 275.391 C 134.180 275.651,134.049 275.781,133.789 275.781 C 133.572 275.781,133.398 275.911,133.398 276.074 C 133.398 276.235,133.267 276.367,133.105 276.367 C 132.943 276.367,132.813 276.541,132.813 276.758 C 132.813 277.018,132.682 277.148,132.422 277.148 C 132.205 277.148,132.031 277.279,132.031 277.441 C 132.031 277.603,131.899 277.734,131.738 277.734 C 131.576 277.734,131.445 277.908,131.445 278.125 C 131.445 278.385,131.315 278.516,131.055 278.516 C 130.838 278.516,130.664 278.646,130.664 278.809 C 130.664 278.971,130.490 279.102,130.273 279.102 C 130.056 279.102,129.883 278.971,129.883 278.809 C 129.883 278.647,129.751 278.516,129.590 278.516 C 129.427 278.516,129.297 278.342,129.297 278.125 C 129.297 277.865,129.167 277.734,128.906 277.734 C 128.689 277.734,128.516 277.604,128.516 277.441 C 128.516 277.280,128.384 277.148,128.223 277.148 C 128.060 277.148,127.930 276.975,127.930 276.758 C 127.930 276.497,127.799 276.367,127.539 276.367 C 127.322 276.367,127.148 276.237,127.148 276.074 C 127.148 275.913,127.017 275.781,126.855 275.781 C 126.693 275.781,126.563 275.608,126.563 275.391 C 126.563 275.130,126.432 275.000,126.172 275.000 C 125.911 275.000,125.781 274.870,125.781 274.609 C 125.781 274.392,125.651 274.219,125.488 274.219 C 125.327 274.219,125.195 274.087,125.195 273.926 C 125.195 273.763,125.022 273.633,124.805 273.633 C 124.544 273.633,124.414 273.503,124.414 273.242 C 124.414 273.025,124.284 272.852,124.121 272.852 C 123.960 272.852,123.828 272.720,123.828 272.559 C 123.828 272.396,123.655 272.266,123.438 272.266 C 123.177 272.266,123.047 272.135,123.047 271.875 C 123.047 271.658,122.917 271.484,122.754 271.484 C 122.593 271.484,122.461 271.353,122.461 271.191 C 122.461 271.029,122.287 270.898,122.070 270.898 C 121.810 270.898,121.680 270.768,121.680 270.508 C 121.680 270.291,121.549 270.117,121.387 270.117 C 121.226 270.117,121.094 269.985,121.094 269.824 C 121.094 269.661,120.920 269.531,120.703 269.531 C 120.443 269.531,120.313 269.401,120.313 269.141 C 120.313 268.924,120.182 268.750,120.020 268.750 C 119.858 268.750,119.727 268.618,119.727 268.457 C 119.727 268.294,119.553 268.164,119.336 268.164 C 119.076 268.164,118.945 268.034,118.945 267.773 C 118.945 267.513,118.815 267.383,118.555 267.383 C 118.338 267.383,118.164 267.253,118.164 267.090 C 118.164 266.929,118.032 266.797,117.871 266.797 C 117.708 266.797,117.578 266.623,117.578 266.406 C 117.578 266.146,117.448 266.016,117.188 266.016 C 116.970 266.016,116.797 265.885,116.797 265.723 C 116.797 265.562,116.665 265.430,116.504 265.430 C 116.341 265.430,116.211 265.256,116.211 265.039 C 116.211 264.779,116.081 264.648,115.820 264.648 C 115.603 264.648,115.430 264.518,115.430 264.355 C 115.430 264.194,115.298 264.063,115.137 264.063 C 114.974 264.063,114.844 263.889,114.844 263.672 C 114.844 263.411,114.714 263.281,114.453 263.281 C 114.193 263.281,114.063 263.151,114.063 262.891 C 114.063 262.674,113.932 262.500,113.770 262.500 C 113.608 262.500,113.477 262.368,113.477 262.207 C 113.477 262.044,113.303 261.914,113.086 261.914 C 112.826 261.914,112.695 261.784,112.695 261.523 C 112.695 261.306,112.565 261.133,112.402 261.133 C 112.241 261.133,112.109 261.001,112.109 260.840 C 112.109 260.677,111.936 260.547,111.719 260.547 C 111.458 260.547,111.328 260.417,111.328 260.156 C 111.328 259.939,111.198 259.766,111.035 259.766 C 110.874 259.766,110.742 259.634,110.742 259.473 C 110.742 259.310,110.569 259.180,110.352 259.180 C 110.091 259.180,109.961 259.049,109.961 258.789 C 109.961 258.572,109.831 258.398,109.668 258.398 C 109.507 258.398,109.375 258.267,109.375 258.105 C 109.375 257.943,109.201 257.813,108.984 257.813 C 108.724 257.813,108.594 257.682,108.594 257.422 C 108.594 257.205,108.464 257.031,108.301 257.031 C 108.140 257.031,108.008 256.899,108.008 256.738 C 108.008 256.576,107.834 256.445,107.617 256.445 C 107.357 256.445,107.227 256.315,107.227 256.055 C 107.227 255.838,107.096 255.664,106.934 255.664 C 106.772 255.664,106.641 255.532,106.641 255.371 C 106.641 255.208,106.467 255.078,106.250 255.078 C 105.990 255.078,105.859 254.948,105.859 254.688 C 105.859 254.427,105.729 254.297,105.469 254.297 C 105.252 254.297,105.078 254.167,105.078 254.004 C 105.078 253.843,104.946 253.711,104.785 253.711 C 104.622 253.711,104.492 253.537,104.492 253.320 C 104.492 253.060,104.362 252.930,104.102 252.930 C 103.885 252.930,103.711 252.799,103.711 252.637 C 103.711 252.476,103.579 252.344,103.418 252.344 C 103.206 252.344,103.125 252.127,103.125 251.563 C 103.125 250.998,103.206 250.781,103.418 250.781 C 103.579 250.781,103.711 250.649,103.711 250.488 C 103.711 250.326,103.885 250.195,104.102 250.195 C 104.362 250.195,104.492 250.065,104.492 249.805 C 104.492 249.588,104.622 249.414,104.785 249.414 C 104.946 249.414,105.078 249.282,105.078 249.121 C 105.078 248.958,105.252 248.828,105.469 248.828 C 105.729 248.828,105.859 248.698,105.859 248.438 C 105.859 248.177,105.990 248.047,106.250 248.047 C 106.467 248.047,106.641 247.917,106.641 247.754 C 106.641 247.593,106.772 247.461,106.934 247.461 C 107.096 247.461,107.227 247.287,107.227 247.070 C 107.227 246.810,107.357 246.680,107.617 246.680 C 107.834 246.680,108.008 246.549,108.008 246.387 C 108.008 246.226,108.140 246.094,108.301 246.094 C 108.464 246.094,108.594 245.920,108.594 245.703 C 108.594 245.443,108.724 245.313,108.984 245.313 C 109.201 245.313,109.375 245.182,109.375 245.020 C 109.375 244.858,109.507 244.727,109.668 244.727 C 109.831 244.727,109.961 244.553,109.961 244.336 C 109.961 244.076,110.091 243.945,110.352 243.945 C 110.569 243.945,110.742 243.815,110.742 243.652 C 110.742 243.491,110.874 243.359,111.035 243.359 C 111.198 243.359,111.328 243.186,111.328 242.969 C 111.328 242.708,111.458 242.578,111.719 242.578 C 111.936 242.578,112.109 242.448,112.109 242.285 C 112.109 242.124,112.241 241.992,112.402 241.992 C 112.565 241.992,112.695 241.819,112.695 241.602 C 112.695 241.341,112.826 241.211,113.086 241.211 C 113.303 241.211,113.477 241.081,113.477 240.918 C 113.477 240.757,113.608 240.625,113.770 240.625 C 113.932 240.625,114.063 240.451,114.063 240.234 C 114.063 239.974,114.193 239.844,114.453 239.844 C 114.714 239.844,114.844 239.714,114.844 239.453 C 114.844 239.236,114.974 239.063,115.137 239.063 C 115.298 239.063,115.430 238.931,115.430 238.770 C 115.430 238.607,115.603 238.477,115.820 238.477 C 116.081 238.477,116.211 238.346,116.211 238.086 C 116.211 237.869,116.341 237.695,116.504 237.695 C 116.665 237.695,116.797 237.563,116.797 237.402 C 116.797 237.240,116.970 237.109,117.188 237.109 C 117.448 237.109,117.578 236.979,117.578 236.719 C 117.578 236.502,117.708 236.328,117.871 236.328 C 118.032 236.328,118.164 236.196,118.164 236.035 C 118.164 235.824,118.381 235.742,118.945 235.742 C 119.596 235.742,119.727 235.677,119.727 235.352 C 119.727 235.135,119.857 234.961,120.020 234.961 C 120.181 234.961,120.313 234.829,120.313 234.668 C 120.313 234.505,120.486 234.375,120.703 234.375 C 120.964 234.375,121.094 234.245,121.094 233.984 C 121.094 233.767,121.224 233.594,121.387 233.594 C 121.548 233.594,121.680 233.462,121.680 233.301 C 121.680 233.138,121.853 233.008,122.070 233.008 C 122.331 233.008,122.461 232.878,122.461 232.617 C 122.461 232.400,122.591 232.227,122.754 232.227 C 122.915 232.227,123.047 232.095,123.047 231.934 C 123.047 231.771,123.220 231.641,123.438 231.641 C 123.698 231.641,123.828 231.510,123.828 231.250 C 123.828 231.033,123.958 230.859,124.121 230.859 C 124.282 230.859,124.414 230.728,124.414 230.566 C 124.414 230.404,124.588 230.273,124.805 230.273 C 125.065 230.273,125.195 230.143,125.195 229.883 C 125.195 229.666,125.326 229.492,125.488 229.492 C 125.649 229.492,125.781 229.360,125.781 229.199 C 125.781 229.036,125.955 228.906,126.172 228.906 C 126.432 228.906,126.563 228.776,126.563 228.516 C 126.563 228.299,126.693 228.125,126.855 228.125 C 127.018 228.125,127.148 227.951,127.148 227.734 C 127.148 227.474,127.279 227.344,127.539 227.344 C 127.756 227.344,127.930 227.214,127.930 227.051 C 127.930 226.890,128.062 226.758,128.223 226.758 C 128.385 226.758,128.516 226.584,128.516 226.367 C 128.516 226.107,128.646 225.977,128.906 225.977 C 129.123 225.977,129.297 225.846,129.297 225.684 C 129.297 225.522,129.429 225.391,129.590 225.391 C 129.753 225.391,129.883 225.217,129.883 225.000 C 129.883 224.740,130.013 224.609,130.273 224.609 C 130.490 224.609,130.664 224.479,130.664 224.316 C 130.664 224.154,130.838 224.023,131.055 224.023 C 131.315 224.023,131.445 223.893,131.445 223.633 C 131.445 223.416,131.576 223.242,131.738 223.242 C 131.899 223.242,132.031 223.110,132.031 222.949 C 132.031 222.786,132.205 222.656,132.422 222.656 C 132.682 222.656,132.813 222.526,132.813 222.266 C 132.813 222.049,132.943 221.875,133.105 221.875 C 133.267 221.875,133.398 221.743,133.398 221.582 C 133.398 221.419,133.572 221.289,133.789 221.289 C 134.049 221.289,134.180 221.159,134.180 220.898 C 134.180 220.681,134.310 220.508,134.473 220.508 C 134.634 220.508,134.766 220.376,134.766 220.215 C 134.766 220.052,134.939 219.922,135.156 219.922 C 135.417 219.922,135.547 219.792,135.547 219.531 C 135.547 219.314,135.677 219.141,135.840 219.141 C 136.001 219.141,136.133 219.009,136.133 218.848 C 136.133 218.685,136.306 218.555,136.523 218.555 C 136.784 218.555,136.914 218.424,136.914 218.164 C 136.914 217.947,137.044 217.773,137.207 217.773 C 137.368 217.773,137.500 217.642,137.500 217.480 C 137.500 217.318,137.674 217.188,137.891 217.188 C 138.151 217.188,138.281 217.057,138.281 216.797 C 138.281 216.580,138.411 216.406,138.574 216.406 C 138.737 216.406,138.867 216.233,138.867 216.016 C 138.867 215.755,138.997 215.625,139.258 215.625 C 139.475 215.625,139.648 215.495,139.648 215.332 C 139.648 215.171,139.780 215.039,139.941 215.039 C 140.104 215.039,140.234 214.865,140.234 214.648 C 140.234 214.332,140.365 214.258,140.918 214.258 C 141.395 214.258,141.602 214.169,141.602 213.965 C 141.602 213.802,141.775 213.672,141.992 213.672 C 142.253 213.672,142.383 213.542,142.383 213.281 C 142.383 213.021,142.513 212.891,142.773 212.891 C 142.990 212.891,143.164 212.760,143.164 212.598 C 143.164 212.437,143.296 212.305,143.457 212.305 C 143.620 212.305,143.750 212.131,143.750 211.914 C 143.750 211.654,143.880 211.523,144.141 211.523 C 144.358 211.523,144.531 211.393,144.531 211.230 C 144.531 211.069,144.663 210.938,144.824 210.938 C 144.987 210.938,145.117 210.764,145.117 210.547 C 145.117 210.286,145.247 210.156,145.508 210.156 C 145.725 210.156,145.898 210.026,145.898 209.863 C 145.898 209.702,146.030 209.570,146.191 209.570 C 146.354 209.570,146.484 209.397,146.484 209.180 C 146.484 208.919,146.615 208.789,146.875 208.789 C 147.092 208.789,147.266 208.659,147.266 208.496 C 147.266 208.335,147.397 208.203,147.559 208.203 C 147.721 208.203,147.852 208.030,147.852 207.813 C 147.852 207.552,147.982 207.422,148.242 207.422 C 148.459 207.422,148.633 207.292,148.633 207.129 C 148.633 206.968,148.765 206.836,148.926 206.836 C 149.089 206.836,149.219 206.662,149.219 206.445 C 149.219 206.185,149.349 206.055,149.609 206.055 C 149.826 206.055,150.000 205.924,150.000 205.762 C 150.000 205.601,150.132 205.469,150.293 205.469 C 150.456 205.469,150.586 205.295,150.586 205.078 C 150.586 204.818,150.716 204.688,150.977 204.688 C 151.237 204.688,151.367 204.557,151.367 204.297 C 151.367 204.080,151.497 203.906,151.660 203.906 C 151.821 203.906,151.953 203.774,151.953 203.613 C 151.953 203.451,152.127 203.320,152.344 203.320 C 152.604 203.320,152.734 203.190,152.734 202.930 C 152.734 202.713,152.865 202.539,153.027 202.539 C 153.188 202.539,153.320 202.407,153.320 202.246 C 153.320 202.083,153.494 201.953,153.711 201.953 C 153.971 201.953,154.102 201.823,154.102 201.563 C 154.102 201.173,153.971 201.172,117.871 201.172 L 81.641 201.172 81.641 181.250 L 81.641 161.328 117.480 161.328 L 153.320 161.328 153.320 160.645 C 153.320 160.167,153.232 159.961,153.027 159.961 C 152.865 159.961,152.734 159.787,152.734 159.570 C 152.734 159.310,152.604 159.180,152.344 159.180 C 152.127 159.180,151.953 159.049,151.953 158.887 C 151.953 158.726,151.821 158.594,151.660 158.594 C 151.497 158.594,151.367 158.420,151.367 158.203 C 151.367 157.887,151.237 157.813,150.684 157.813 C 150.206 157.813,150.000 157.724,150.000 157.520 C 150.000 157.357,149.826 157.227,149.609 157.227 C 149.349 157.227,149.219 157.096,149.219 156.836 C 149.219 156.619,149.089 156.445,148.926 156.445 C 148.763 156.445,148.633 156.272,148.633 156.055 C 148.633 155.794,148.503 155.664,148.242 155.664 C 148.025 155.664,147.852 155.534,147.852 155.371 C 147.852 155.210,147.720 155.078,147.559 155.078 C 147.396 155.078,147.266 154.905,147.266 154.688 C 147.266 154.427,147.135 154.297,146.875 154.297 C 146.658 154.297,146.484 154.167,146.484 154.004 C 146.484 153.843,146.353 153.711,146.191 153.711 C 146.029 153.711,145.898 153.537,145.898 153.320 C 145.898 153.060,145.768 152.930,145.508 152.930 C 145.291 152.930,145.117 152.799,145.117 152.637 C 145.117 152.476,144.985 152.344,144.824 152.344 C 144.661 152.344,144.531 152.170,144.531 151.953 C 144.531 151.693,144.401 151.563,144.141 151.563 C 143.924 151.563,143.750 151.432,143.750 151.270 C 143.750 151.108,143.618 150.977,143.457 150.977 C 143.294 150.977,143.164 150.803,143.164 150.586 C 143.164 150.326,143.034 150.195,142.773 150.195 C 142.556 150.195,142.383 150.065,142.383 149.902 C 142.383 149.740,142.209 149.609,141.992 149.609 C 141.732 149.609,141.602 149.479,141.602 149.219 C 141.602 149.002,141.471 148.828,141.309 148.828 C 141.147 148.828,141.016 148.696,141.016 148.535 C 141.016 148.372,140.842 148.242,140.625 148.242 C 140.365 148.242,140.234 148.112,140.234 147.852 C 140.234 147.635,140.104 147.461,139.941 147.461 C 139.780 147.461,139.648 147.329,139.648 147.168 C 139.648 147.005,139.475 146.875,139.258 146.875 C 138.997 146.875,138.867 146.745,138.867 146.484 C 138.867 146.267,138.737 146.094,138.574 146.094 C 138.413 146.094,138.281 145.962,138.281 145.801 C 138.281 145.596,138.075 145.508,137.598 145.508 C 137.044 145.508,136.914 145.433,136.914 145.117 C 136.914 144.857,136.784 144.727,136.523 144.727 C 136.263 144.727,136.133 144.596,136.133 144.336 C 136.133 144.119,136.003 143.945,135.840 143.945 C 135.679 143.945,135.547 143.813,135.547 143.652 C 135.547 143.490,135.373 143.359,135.156 143.359 C 134.896 143.359,134.766 143.229,134.766 142.969 C 134.766 142.752,134.635 142.578,134.473 142.578 C 134.312 142.578,134.180 142.446,134.180 142.285 C 134.180 142.122,134.006 141.992,133.789 141.992 C 133.529 141.992,133.398 141.862,133.398 141.602 C 133.398 141.385,133.268 141.211,133.105 141.211 C 132.944 141.211,132.813 141.079,132.813 140.918 C 132.813 140.755,132.639 140.625,132.422 140.625 C 132.161 140.625,132.031 140.495,132.031 140.234 C 132.031 140.017,131.901 139.844,131.738 139.844 C 131.577 139.844,131.445 139.712,131.445 139.551 C 131.445 139.388,131.272 139.258,131.055 139.258 C 130.794 139.258,130.664 139.128,130.664 138.867 C 130.664 138.607,130.534 138.477,130.273 138.477 C 130.056 138.477,129.883 138.346,129.883 138.184 C 129.883 138.022,129.751 137.891,129.590 137.891 C 129.427 137.891,129.297 137.717,129.297 137.500 C 129.297 137.240,129.167 137.109,128.906 137.109 C 128.689 137.109,128.516 136.979,128.516 136.816 C 128.516 136.655,128.384 136.523,128.223 136.523 C 128.060 136.523,127.930 136.350,127.930 136.133 C 127.930 135.872,127.799 135.742,127.539 135.742 C 127.322 135.742,127.148 135.612,127.148 135.449 C 127.148 135.288,127.017 135.156,126.855 135.156 C 126.693 135.156,126.563 134.983,126.563 134.766 C 126.563 134.505,126.432 134.375,126.172 134.375 C 125.955 134.375,125.781 134.245,125.781 134.082 C 125.781 133.921,125.649 133.789,125.488 133.789 C 125.326 133.789,125.195 133.615,125.195 133.398 C 125.195 133.082,125.065 133.008,124.512 133.008 C 123.958 133.008,123.828 132.933,123.828 132.617 C 123.828 132.357,123.698 132.227,123.438 132.227 C 123.220 132.227,123.047 132.096,123.047 131.934 C 123.047 131.772,122.915 131.641,122.754 131.641 C 122.591 131.641,122.461 131.467,122.461 131.250 C 122.461 130.990,122.331 130.859,122.070 130.859 C 121.853 130.859,121.680 130.729,121.680 130.566 C 121.680 130.405,121.548 130.273,121.387 130.273 C 121.224 130.273,121.094 130.100,121.094 129.883 C 121.094 129.622,120.964 129.492,120.703 129.492 C 120.486 129.492,120.313 129.362,120.313 129.199 C 120.313 129.038,120.181 128.906,120.020 128.906 C 119.857 128.906,119.727 128.733,119.727 128.516 C 119.727 128.255,119.596 128.125,119.336 128.125 C 119.119 128.125,118.945 127.995,118.945 127.832 C 118.945 127.669,118.772 127.539,118.555 127.539 C 118.294 127.539,118.164 127.409,118.164 127.148 C 118.164 126.931,118.034 126.758,117.871 126.758 C 117.710 126.758,117.578 126.626,117.578 126.465 C 117.578 126.302,117.405 126.172,117.188 126.172 C 116.927 126.172,116.797 126.042,116.797 125.781 C 116.797 125.564,116.667 125.391,116.504 125.391 C 116.343 125.391,116.211 125.259,116.211 125.098 C 116.211 124.935,116.037 124.805,115.820 124.805 C 115.560 124.805,115.430 124.674,115.430 124.414 C 115.430 124.197,115.299 124.023,115.137 124.023 C 114.976 124.023,114.844 123.892,114.844 123.730 C 114.844 123.568,114.670 123.438,114.453 123.438 C 114.193 123.438,114.063 123.307,114.063 123.047 C 114.063 122.830,113.932 122.656,113.770 122.656 C 113.608 122.656,113.477 122.524,113.477 122.363 C 113.477 122.201,113.303 122.070,113.086 122.070 C 112.826 122.070,112.695 121.940,112.695 121.680 C 112.695 121.363,112.565 121.289,112.012 121.289 C 111.458 121.289,111.328 121.215,111.328 120.898 C 111.328 120.681,111.198 120.508,111.035 120.508 C 110.874 120.508,110.742 120.376,110.742 120.215 C 110.742 120.052,110.569 119.922,110.352 119.922 C 110.091 119.922,109.961 119.792,109.961 119.531 C 109.961 119.314,109.831 119.141,109.668 119.141 C 109.507 119.141,109.375 119.009,109.375 118.848 C 109.375 118.685,109.201 118.555,108.984 118.555 C 108.724 118.555,108.594 118.424,108.594 118.164 C 108.594 117.947,108.464 117.773,108.301 117.773 C 108.140 117.773,108.008 117.642,108.008 117.480 C 108.008 117.318,107.834 117.188,107.617 117.188 C 107.357 117.188,107.227 117.057,107.227 116.797 C 107.227 116.580,107.096 116.406,106.934 116.406 C 106.772 116.406,106.641 116.274,106.641 116.113 C 106.641 115.951,106.467 115.820,106.250 115.820 C 105.990 115.820,105.859 115.690,105.859 115.430 C 105.859 115.169,105.729 115.039,105.469 115.039 C 105.252 115.039,105.078 114.909,105.078 114.746 C 105.078 114.585,104.946 114.453,104.785 114.453 C 104.622 114.453,104.492 114.280,104.492 114.063 C 104.492 113.802,104.362 113.672,104.102 113.672 C 103.885 113.672,103.711 113.542,103.711 113.379 C 103.711 113.218,103.579 113.086,103.418 113.086 C 103.213 113.086,103.125 112.880,103.125 112.402 C 103.125 111.925,103.213 111.719,103.418 111.719 C 103.581 111.719,103.711 111.545,103.711 111.328 C 103.711 111.068,103.841 110.938,104.102 110.938 C 104.319 110.938,104.492 110.807,104.492 110.645 C 104.492 110.483,104.624 110.352,104.785 110.352 C 104.948 110.352,105.078 110.178,105.078 109.961 C 105.078 109.701,105.208 109.570,105.469 109.570 C 105.785 109.570,105.859 109.440,105.859 108.887 C 105.859 108.333,105.934 108.203,106.250 108.203 C 106.510 108.203,106.641 108.073,106.641 107.813 C 106.641 107.595,106.771 107.422,106.934 107.422 C 107.095 107.422,107.227 107.290,107.227 107.129 C 107.227 106.966,107.400 106.836,107.617 106.836 C 107.878 106.836,108.008 106.706,108.008 106.445 C 108.008 106.228,108.138 106.055,108.301 106.055 C 108.462 106.055,108.594 105.923,108.594 105.762 C 108.594 105.599,108.767 105.469,108.984 105.469 C 109.245 105.469,109.375 105.339,109.375 105.078 C 109.375 104.861,109.505 104.688,109.668 104.688 C 109.829 104.688,109.961 104.556,109.961 104.395 C 109.961 104.232,110.135 104.102,110.352 104.102 C 110.612 104.102,110.742 103.971,110.742 103.711 C 110.742 103.494,110.872 103.320,111.035 103.320 C 111.196 103.320,111.328 103.188,111.328 103.027 C 111.328 102.865,111.502 102.734,111.719 102.734 C 111.979 102.734,112.109 102.604,112.109 102.344 C 112.109 102.127,112.240 101.953,112.402 101.953 C 112.563 101.953,112.695 101.821,112.695 101.660 C 112.695 101.497,112.869 101.367,113.086 101.367 C 113.346 101.367,113.477 101.237,113.477 100.977 C 113.477 100.760,113.607 100.586,113.770 100.586 C 113.931 100.586,114.063 100.454,114.063 100.293 C 114.063 100.130,114.236 100.000,114.453 100.000 C 114.714 100.000,114.844 99.870,114.844 99.609 C 114.844 99.392,114.974 99.219,115.137 99.219 C 115.298 99.219,115.430 99.087,115.430 98.926 C 115.430 98.763,115.603 98.633,115.820 98.633 C 116.081 98.633,116.211 98.503,116.211 98.242 C 116.211 98.025,116.341 97.852,116.504 97.852 C 116.667 97.852,116.797 97.678,116.797 97.461 C 116.797 97.201,116.927 97.070,117.188 97.070 C 117.405 97.070,117.578 96.940,117.578 96.777 C 117.578 96.616,117.710 96.484,117.871 96.484 C 118.034 96.484,118.164 96.311,118.164 96.094 C 118.164 95.833,118.294 95.703,118.555 95.703 C 118.772 95.703,118.945 95.573,118.945 95.410 C 118.945 95.247,119.119 95.117,119.336 95.117 C 119.596 95.117,119.727 94.987,119.727 94.727 C 119.727 94.510,119.857 94.336,120.020 94.336 C 120.181 94.336,120.313 94.204,120.313 94.043 C 120.313 93.880,120.486 93.750,120.703 93.750 C 120.964 93.750,121.094 93.620,121.094 93.359 C 121.094 93.142,121.224 92.969,121.387 92.969 C 121.548 92.969,121.680 92.837,121.680 92.676 C 121.680 92.513,121.853 92.383,122.070 92.383 C 122.331 92.383,122.461 92.253,122.461 91.992 C 122.461 91.775,122.591 91.602,122.754 91.602 C 122.915 91.602,123.047 91.470,123.047 91.309 C 123.047 91.146,123.220 91.016,123.438 91.016 C 123.698 91.016,123.828 90.885,123.828 90.625 C 123.828 90.408,123.958 90.234,124.121 90.234 C 124.282 90.234,124.414 90.103,124.414 89.941 C 124.414 89.779,124.588 89.648,124.805 89.648 C 125.065 89.648,125.195 89.518,125.195 89.258 C 125.195 89.041,125.326 88.867,125.488 88.867 C 125.649 88.867,125.781 88.735,125.781 88.574 C 125.781 88.411,125.955 88.281,126.172 88.281 C 126.432 88.281,126.563 88.151,126.563 87.891 C 126.563 87.674,126.693 87.500,126.855 87.500 C 127.017 87.500,127.148 87.368,127.148 87.207 C 127.148 87.044,127.322 86.914,127.539 86.914 C 127.799 86.914,127.930 86.784,127.930 86.523 C 127.930 86.306,128.060 86.133,128.223 86.133 C 128.384 86.133,128.516 86.001,128.516 85.840 C 128.516 85.677,128.689 85.547,128.906 85.547 C 129.167 85.547,129.297 85.417,129.297 85.156 C 129.297 84.939,129.427 84.766,129.590 84.766 C 129.753 84.766,129.883 84.592,129.883 84.375 C 129.883 84.115,130.013 83.984,130.273 83.984 C 130.534 83.984,130.664 84.115,130.664 84.375 C 130.664 84.635,130.794 84.766,131.055 84.766 C 131.315 84.766,131.445 84.896,131.445 85.156 C 131.445 85.373,131.576 85.547,131.738 85.547 C 131.899 85.547,132.031 85.679,132.031 85.840 C 132.031 86.003,132.205 86.133,132.422 86.133 C 132.682 86.133,132.813 86.263,132.813 86.523 C 132.813 86.740,132.943 86.914,133.105 86.914 C 133.267 86.914,133.398 87.046,133.398 87.207 C 133.398 87.370,133.572 87.500,133.789 87.500 C 134.049 87.500,134.180 87.630,134.180 87.891 C 134.180 88.108,134.310 88.281,134.473 88.281 C 134.634 88.281,134.766 88.413,134.766 88.574 C 134.766 88.737,134.939 88.867,135.156 88.867 C 135.417 88.867,135.547 88.997,135.547 89.258 C 135.547 89.475,135.677 89.648,135.840 89.648 C 136.001 89.648,136.133 89.780,136.133 89.941 C 136.133 90.104,136.306 90.234,136.523 90.234 C 136.784 90.234,136.914 90.365,136.914 90.625 C 136.914 90.842,137.044 91.016,137.207 91.016 C 137.368 91.016,137.500 91.147,137.500 91.309 C 137.500 91.471,137.674 91.602,137.891 91.602 C 138.151 91.602,138.281 91.732,138.281 91.992 C 138.281 92.209,138.411 92.383,138.574 92.383 C 138.735 92.383,138.867 92.515,138.867 92.676 C 138.867 92.839,139.041 92.969,139.258 92.969 C 139.518 92.969,139.648 93.099,139.648 93.359 C 139.648 93.576,139.779 93.750,139.941 93.750 C 140.103 93.750,140.234 93.882,140.234 94.043 C 140.234 94.206,140.408 94.336,140.625 94.336 C 140.885 94.336,141.016 94.466,141.016 94.727 C 141.016 94.944,141.146 95.117,141.309 95.117 C 141.470 95.117,141.602 95.249,141.602 95.410 C 141.602 95.573,141.775 95.703,141.992 95.703 C 142.253 95.703,142.383 95.833,142.383 96.094 C 142.383 96.354,142.513 96.484,142.773 96.484 C 142.990 96.484,143.164 96.615,143.164 96.777 C 143.164 96.938,143.296 97.070,143.457 97.070 C 143.620 97.070,143.750 97.244,143.750 97.461 C 143.750 97.721,143.880 97.852,144.141 97.852 C 144.401 97.852,144.531 97.982,144.531 98.242 C 144.531 98.459,144.661 98.633,144.824 98.633 C 144.985 98.633,145.117 98.765,145.117 98.926 C 145.117 99.089,145.291 99.219,145.508 99.219 C 145.768 99.219,145.898 99.349,145.898 99.609 C 145.898 99.826,146.029 100.000,146.191 100.000 C 146.353 100.000,146.484 100.132,146.484 100.293 C 146.484 100.456,146.658 100.586,146.875 100.586 C 147.135 100.586,147.266 100.716,147.266 100.977 C 147.266 101.194,147.396 101.367,147.559 101.367 C 147.720 101.367,147.852 101.499,147.852 101.660 C 147.852 101.823,148.025 101.953,148.242 101.953 C 148.503 101.953,148.633 102.083,148.633 102.344 C 148.633 102.561,148.763 102.734,148.926 102.734 C 149.087 102.734,149.219 102.866,149.219 103.027 C 149.219 103.190,149.392 103.320,149.609 103.320 C 149.870 103.320,150.000 103.451,150.000 103.711 C 150.000 103.928,150.130 104.102,150.293 104.102 C 150.454 104.102,150.586 104.233,150.586 104.395 C 150.586 104.557,150.760 104.688,150.977 104.688 C 151.237 104.688,151.367 104.818,151.367 105.078 C 151.367 105.295,151.497 105.469,151.660 105.469 C 151.821 105.469,151.953 105.601,151.953 105.762 C 151.953 105.924,152.127 106.055,152.344 106.055 C 152.604 106.055,152.734 106.185,152.734 106.445 C 152.734 106.662,152.865 106.836,153.027 106.836 C 153.188 106.836,153.320 106.968,153.320 107.129 C 153.320 107.292,153.494 107.422,153.711 107.422 C 153.971 107.422,154.102 107.552,154.102 107.813 C 154.102 108.073,154.232 108.203,154.492 108.203 C 154.709 108.203,154.883 108.333,154.883 108.496 C 154.883 108.657,155.015 108.789,155.176 108.789 C 155.339 108.789,155.469 108.963,155.469 109.180 C 155.469 109.440,155.599 109.570,155.859 109.570 C 156.176 109.570,156.250 109.701,156.250 110.254 C 156.250 110.731,156.338 110.938,156.543 110.938 C 156.706 110.938,156.836 111.111,156.836 111.328 C 156.836 111.589,156.966 111.719,157.227 111.719 C 157.444 111.719,157.617 111.849,157.617 112.012 C 157.617 112.173,157.749 112.305,157.910 112.305 C 158.073 112.305,158.203 112.478,158.203 112.695 C 158.203 112.956,158.333 113.086,158.594 113.086 C 158.811 113.086,158.984 113.216,158.984 113.379 C 158.984 113.540,159.116 113.672,159.277 113.672 C 159.440 113.672,159.570 113.845,159.570 114.063 C 159.570 114.323,159.701 114.453,159.961 114.453 C 160.178 114.453,160.352 114.583,160.352 114.746 C 160.352 114.907,160.483 115.039,160.645 115.039 C 160.807 115.039,160.938 115.213,160.938 115.430 C 160.938 115.690,161.068 115.820,161.328 115.820 C 161.545 115.820,161.719 115.951,161.719 116.113 C 161.719 116.274,161.851 116.406,162.012 116.406 C 162.174 116.406,162.305 116.580,162.305 116.797 C 162.305 117.057,162.435 117.188,162.695 117.188 C 162.912 117.188,163.086 117.318,163.086 117.480 C 163.086 117.642,163.218 117.773,163.379 117.773 C 163.542 117.773,163.672 117.947,163.672 118.164 C 163.672 118.424,163.802 118.555,164.063 118.555 C 164.280 118.555,164.453 118.685,164.453 118.848 C 164.453 119.009,164.585 119.141,164.746 119.141 C 164.909 119.141,165.039 119.314,165.039 119.531 C 165.039 119.792,165.169 119.922,165.430 119.922 C 165.647 119.922,165.820 120.052,165.820 120.215 C 165.820 120.378,165.994 120.508,166.211 120.508 C 166.471 120.508,166.602 120.638,166.602 120.898 C 166.602 121.115,166.732 121.289,166.895 121.289 C 167.057 121.289,167.188 121.463,167.188 121.680 C 167.188 121.940,167.318 122.070,167.578 122.070 C 167.795 122.070,167.969 122.201,167.969 122.363 C 167.969 122.524,168.101 122.656,168.262 122.656 C 168.424 122.656,168.555 122.830,168.555 123.047 C 168.555 123.307,168.685 123.438,168.945 123.438 C 169.162 123.438,169.336 123.568,169.336 123.730 C 169.336 123.892,169.468 124.023,169.629 124.023 C 169.792 124.023,169.922 124.197,169.922 124.414 C 169.922 124.674,170.052 124.805,170.313 124.805 C 170.530 124.805,170.703 124.935,170.703 125.098 C 170.703 125.259,170.835 125.391,170.996 125.391 C 171.159 125.391,171.289 125.564,171.289 125.781 C 171.289 126.042,171.419 126.172,171.680 126.172 C 171.897 126.172,172.070 126.302,172.070 126.465 C 172.070 126.626,172.202 126.758,172.363 126.758 C 172.526 126.758,172.656 126.931,172.656 127.148 C 172.656 127.409,172.786 127.539,173.047 127.539 C 173.264 127.539,173.438 127.669,173.438 127.832 C 173.438 127.993,173.569 128.125,173.730 128.125 C 173.893 128.125,174.023 128.299,174.023 128.516 C 174.023 128.776,174.154 128.906,174.414 128.906 C 174.631 128.906,174.805 129.036,174.805 129.199 C 174.805 129.360,174.937 129.492,175.098 129.492 C 175.260 129.492,175.391 129.666,175.391 129.883 C 175.391 130.143,175.521 130.273,175.781 130.273 C 175.998 130.273,176.172 130.404,176.172 130.566 C 176.172 130.728,176.304 130.859,176.465 130.859 C 176.628 130.859,176.758 131.033,176.758 131.250 C 176.758 131.510,176.888 131.641,177.148 131.641 C 177.365 131.641,177.539 131.771,177.539 131.934 C 177.539 132.096,177.713 132.227,177.930 132.227 C 178.190 132.227,178.320 132.357,178.320 132.617 C 178.320 132.834,178.451 133.008,178.613 133.008 C 178.776 133.008,178.906 133.181,178.906 133.398 C 178.906 133.659,179.036 133.789,179.297 133.789 C 179.686 133.789,179.688 133.659,179.688 98.242 L 179.688 62.695 200.684 62.695 L 221.680 62.695 221.680 98.242 M222.266 306.738 L 222.266 354.297 201.270 354.297 L 180.273 354.297 180.273 306.738 L 180.273 259.180 201.270 259.180 L 222.266 259.180 222.266 306.738 " stroke="none" fill="currentColor" fill-rule="evenodd"></path></g></svg>